<?xml version="1.0" encoding="UTF-8" standalone="no"?>
<!-- Created with Inkscape (http://www.inkscape.org/) -->

<svg
   version="1.1"
   id="svg1"
   width="544.45892"
   height="248.07599"
   viewBox="0 0 544.45892 248.07599"
   sodipodi:docname="Logotipo-Horizontal-Institucional-U.-de-los-Andes-2025-lleno.pdf"
   xmlns:inkscape="http://www.inkscape.org/namespaces/inkscape"
   xmlns:sodipodi="http://sodipodi.sourceforge.net/DTD/sodipodi-0.dtd"
   xmlns="http://www.w3.org/2000/svg"
   xmlns:svg="http://www.w3.org/2000/svg">
  <defs
     id="defs1">
    <clipPath
       clipPathUnits="userSpaceOnUse"
       id="clipPath2">
      <path
         d="M 0,612 H 792 V 0 H 0 Z"
         transform="translate(-441.15251,-277.5472)"
         id="path2" />
    </clipPath>
    <clipPath
       clipPathUnits="userSpaceOnUse"
       id="clipPath4">
      <path
         d="M 0,612 H 792 V 0 H 0 Z"
         transform="translate(-490.37731,-281.17441)"
         id="path4" />
    </clipPath>
    <clipPath
       clipPathUnits="userSpaceOnUse"
       id="clipPath6">
      <path
         d="M 0,612 H 792 V 0 H 0 Z"
         transform="translate(-422.25931,-270.2935)"
         id="path6" />
    </clipPath>
    <clipPath
       clipPathUnits="userSpaceOnUse"
       id="clipPath8">
      <path
         d="M 0,612 H 792 V 0 H 0 Z"
         transform="translate(-548.24971,-275.56351)"
         id="path8" />
    </clipPath>
    <clipPath
       clipPathUnits="userSpaceOnUse"
       id="clipPath10">
      <path
         d="M 0,612 H 792 V 0 H 0 Z"
         transform="translate(-367.12711,-275.56351)"
         id="path10" />
    </clipPath>
    <clipPath
       clipPathUnits="userSpaceOnUse"
       id="clipPath12">
      <path
         d="M 0,612 H 792 V 0 H 0 Z"
         transform="translate(-523.22861,-292.01881)"
         id="path12" />
    </clipPath>
    <clipPath
       clipPathUnits="userSpaceOnUse"
       id="clipPath14">
      <path
         d="M 0,612 H 792 V 0 H 0 Z"
         transform="translate(-565.06471,-283.1221)"
         id="path14" />
    </clipPath>
    <clipPath
       clipPathUnits="userSpaceOnUse"
       id="clipPath16">
      <path
         d="M 0,612 H 792 V 0 H 0 Z"
         transform="translate(-597.49432,-282.04171)"
         id="path16" />
    </clipPath>
    <clipPath
       clipPathUnits="userSpaceOnUse"
       id="clipPath18">
      <path
         d="M 0,612 H 792 V 0 H 0 Z"
         transform="translate(-464.83351,-282.04171)"
         id="path18" />
    </clipPath>
    <clipPath
       clipPathUnits="userSpaceOnUse"
       id="clipPath20">
      <path
         d="M 0,612 H 792 V 0 H 0 Z"
         transform="translate(-383.93701,-283.1221)"
         id="path20" />
    </clipPath>
    <clipPath
       clipPathUnits="userSpaceOnUse"
       id="clipPath22">
      <path
         d="M 0,612 H 792 V 0 H 0 Z"
         transform="translate(-376.94671,-325.34631)"
         id="path22" />
    </clipPath>
    <clipPath
       clipPathUnits="userSpaceOnUse"
       id="clipPath24">
      <path
         d="M 0,612 H 792 V 0 H 0 Z"
         transform="translate(-411.87541,-314.24961)"
         id="path24" />
    </clipPath>
    <clipPath
       clipPathUnits="userSpaceOnUse"
       id="clipPath26">
      <path
         d="M 0,612 H 792 V 0 H 0 Z"
         transform="translate(-426.03791,-321.24471)"
         id="path26" />
    </clipPath>
    <clipPath
       clipPathUnits="userSpaceOnUse"
       id="clipPath28">
      <path
         d="M 0,612 H 792 V 0 H 0 Z"
         transform="translate(-472.71101,-330.61361)"
         id="path28" />
    </clipPath>
    <clipPath
       clipPathUnits="userSpaceOnUse"
       id="clipPath30">
      <path
         d="M 0,612 H 792 V 0 H 0 Z"
         transform="translate(-548.85382,-320.48911)"
         id="path30" />
    </clipPath>
    <clipPath
       clipPathUnits="userSpaceOnUse"
       id="clipPath32">
      <path
         d="M 0,612 H 792 V 0 H 0 Z"
         transform="translate(-412.09121,-341.58111)"
         id="path32" />
    </clipPath>
    <clipPath
       clipPathUnits="userSpaceOnUse"
       id="clipPath34">
      <path
         d="M 0,612 H 792 V 0 H 0 Z"
         transform="translate(-506.54021,-341.58111)"
         id="path34" />
    </clipPath>
    <clipPath
       clipPathUnits="userSpaceOnUse"
       id="clipPath36">
      <path
         d="M 0,612 H 792 V 0 H 0 Z"
         transform="translate(-523.85242,-319.51951)"
         id="path36" />
    </clipPath>
    <clipPath
       clipPathUnits="userSpaceOnUse"
       id="clipPath38">
      <path
         d="M 0,612 H 792 V 0 H 0 Z"
         transform="translate(-572.21062,-319.51951)"
         id="path38" />
    </clipPath>
    <clipPath
       clipPathUnits="userSpaceOnUse"
       id="clipPath40">
      <path
         d="M 0,612 H 792 V 0 H 0 Z"
         transform="translate(-393.83181,-335.97591)"
         id="path40" />
    </clipPath>
    <clipPath
       clipPathUnits="userSpaceOnUse"
       id="clipPath42">
      <path
         d="M 0,612 H 792 V 0 H 0 Z"
         transform="translate(-443.78421,-327.07831)"
         id="path42" />
    </clipPath>
    <clipPath
       clipPathUnits="userSpaceOnUse"
       id="clipPath44">
      <path
         d="M 0,612 H 792 V 0 H 0 Z"
         transform="translate(-494.00231,-325.98991)"
         id="path44" />
    </clipPath>
    <clipPath
       clipPathUnits="userSpaceOnUse"
       id="clipPath46">
      <path
         d="M 0,612 H 792 V 0 H 0 Z"
         transform="translate(-506.32432,-314.24961)"
         id="path46" />
    </clipPath>
    <clipPath
       clipPathUnits="userSpaceOnUse"
       id="clipPath48">
      <path
         d="M 0,612 H 792 V 0 H 0 Z"
         transform="translate(-260.56711,-215.22981)"
         id="path48" />
    </clipPath>
    <clipPath
       clipPathUnits="userSpaceOnUse"
       id="clipPath50">
      <path
         d="M 0,612 H 792 V 0 H 0 Z"
         transform="translate(-230.42211,-241.24941)"
         id="path50" />
    </clipPath>
    <clipPath
       clipPathUnits="userSpaceOnUse"
       id="clipPath52">
      <path
         d="M 0,612 H 792 V 0 H 0 Z"
         transform="translate(-291.697,-241.24941)"
         id="path52" />
    </clipPath>
    <clipPath
       clipPathUnits="userSpaceOnUse"
       id="clipPath54">
      <path
         d="M 0,612 H 792 V 0 H 0 Z"
         transform="translate(-261.69661,-238.3699)"
         id="path54" />
    </clipPath>
    <clipPath
       clipPathUnits="userSpaceOnUse"
       id="clipPath56">
      <path
         d="M 0,612 H 792 V 0 H 0 Z"
         transform="translate(-214.93551,-252.78001)"
         id="path56" />
    </clipPath>
    <clipPath
       clipPathUnits="userSpaceOnUse"
       id="clipPath58">
      <path
         d="M 0,612 H 792 V 0 H 0 Z"
         transform="translate(-214.17591,-256.91331)"
         id="path58" />
    </clipPath>
    <clipPath
       clipPathUnits="userSpaceOnUse"
       id="clipPath60">
      <path
         d="M 0,612 H 792 V 0 H 0 Z"
         transform="translate(-208.4704,-269.73751)"
         id="path60" />
    </clipPath>
    <clipPath
       clipPathUnits="userSpaceOnUse"
       id="clipPath62">
      <path
         d="M 0,612 H 792 V 0 H 0 Z"
         transform="translate(-205.51801,-274.9789)"
         id="path62" />
    </clipPath>
    <clipPath
       clipPathUnits="userSpaceOnUse"
       id="clipPath64">
      <path
         d="M 0,612 H 792 V 0 H 0 Z"
         transform="translate(-201.66151,-287.81331)"
         id="path64" />
    </clipPath>
    <clipPath
       clipPathUnits="userSpaceOnUse"
       id="clipPath66">
      <path
         d="M 0,612 H 792 V 0 H 0 Z"
         transform="translate(-199.8996,-300.94991)"
         id="path66" />
    </clipPath>
    <clipPath
       clipPathUnits="userSpaceOnUse"
       id="clipPath68">
      <path
         d="M 0,612 H 792 V 0 H 0 Z"
         transform="translate(-199.4122,-310.32761)"
         id="path68" />
    </clipPath>
    <clipPath
       clipPathUnits="userSpaceOnUse"
       id="clipPath70">
      <path
         d="M 0,612 H 792 V 0 H 0 Z"
         transform="translate(-199.746,-319.14171)"
         id="path70" />
    </clipPath>
    <clipPath
       clipPathUnits="userSpaceOnUse"
       id="clipPath72">
      <path
         d="M 0,612 H 792 V 0 H 0 Z"
         transform="translate(-201.73681,-324.70161)"
         id="path72" />
    </clipPath>
    <clipPath
       clipPathUnits="userSpaceOnUse"
       id="clipPath74">
      <path
         d="M 0,612 H 792 V 0 H 0 Z"
         transform="translate(-206.42361,-340.00451)"
         id="path74" />
    </clipPath>
    <clipPath
       clipPathUnits="userSpaceOnUse"
       id="clipPath76">
      <path
         d="M 0,612 H 792 V 0 H 0 Z"
         transform="translate(-208.36561,-348.96211)"
         id="path76" />
    </clipPath>
    <clipPath
       clipPathUnits="userSpaceOnUse"
       id="clipPath78">
      <path
         d="M 0,612 H 792 V 0 H 0 Z"
         transform="translate(-216.31021,-363.85091)"
         id="path78" />
    </clipPath>
    <clipPath
       clipPathUnits="userSpaceOnUse"
       id="clipPath80">
      <path
         d="M 0,612 H 792 V 0 H 0 Z"
         transform="translate(-221.80851,-370.96151)"
         id="path80" />
    </clipPath>
    <clipPath
       clipPathUnits="userSpaceOnUse"
       id="clipPath82">
      <path
         d="M 0,612 H 792 V 0 H 0 Z"
         transform="translate(-229.57351,-380.33931)"
         id="path82" />
    </clipPath>
    <clipPath
       clipPathUnits="userSpaceOnUse"
       id="clipPath84">
      <path
         d="M 0,612 H 792 V 0 H 0 Z"
         transform="translate(-245.2987,-388.16021)"
         id="path84" />
    </clipPath>
    <clipPath
       clipPathUnits="userSpaceOnUse"
       id="clipPath86">
      <path
         d="M 0,612 H 792 V 0 H 0 Z"
         transform="translate(-257.3674,-391.43571)"
         id="path86" />
    </clipPath>
    <clipPath
       clipPathUnits="userSpaceOnUse"
       id="clipPath88">
      <path
         d="M 0,612 H 792 V 0 H 0 Z"
         transform="translate(-265.46151,-384.39531)"
         id="path88" />
    </clipPath>
    <clipPath
       clipPathUnits="userSpaceOnUse"
       id="clipPath90">
      <path
         d="M 0,612 H 792 V 0 H 0 Z"
         transform="translate(-280.0639,-381.32731)"
         id="path90" />
    </clipPath>
    <clipPath
       clipPathUnits="userSpaceOnUse"
       id="clipPath92">
      <path
         d="M 0,612 H 792 V 0 H 0 Z"
         transform="translate(-297.2488,-373.07911)"
         id="path92" />
    </clipPath>
    <clipPath
       clipPathUnits="userSpaceOnUse"
       id="clipPath94">
      <path
         d="M 0,612 H 792 V 0 H 0 Z"
         transform="translate(-296.9038,-367.27091)"
         id="path94" />
    </clipPath>
    <clipPath
       clipPathUnits="userSpaceOnUse"
       id="clipPath96">
      <path
         d="M 0,612 H 792 V 0 H 0 Z"
         transform="translate(-313.57081,-343.42251)"
         id="path96" />
    </clipPath>
    <clipPath
       clipPathUnits="userSpaceOnUse"
       id="clipPath98">
      <path
         d="M 0,612 H 792 V 0 H 0 Z"
         transform="translate(-310.92161,-333.57571)"
         id="path98" />
    </clipPath>
    <clipPath
       clipPathUnits="userSpaceOnUse"
       id="clipPath100">
      <path
         d="M 0,612 H 792 V 0 H 0 Z"
         transform="translate(-318.47191,-318.89541)"
         id="path100" />
    </clipPath>
    <clipPath
       clipPathUnits="userSpaceOnUse"
       id="clipPath102">
      <path
         d="M 0,612 H 792 V 0 H 0 Z"
         transform="translate(-322.30701,-307.42361)"
         id="path102" />
    </clipPath>
    <clipPath
       clipPathUnits="userSpaceOnUse"
       id="clipPath104">
      <path
         d="M 0,612 H 792 V 0 H 0 Z"
         transform="translate(-321.95501,-300.89291)"
         id="path104" />
    </clipPath>
    <clipPath
       clipPathUnits="userSpaceOnUse"
       id="clipPath106">
      <path
         d="M 0,612 H 792 V 0 H 0 Z"
         transform="translate(-320.23531,-286.69201)"
         id="path106" />
    </clipPath>
    <clipPath
       clipPathUnits="userSpaceOnUse"
       id="clipPath108">
      <path
         d="M 0,612 H 792 V 0 H 0 Z"
         transform="translate(-318.01701,-276.5704)"
         id="path108" />
    </clipPath>
    <clipPath
       clipPathUnits="userSpaceOnUse"
       id="clipPath110">
      <path
         d="M 0,612 H 792 V 0 H 0 Z"
         transform="translate(-312.05931,-263.44291)"
         id="path110" />
    </clipPath>
    <clipPath
       clipPathUnits="userSpaceOnUse"
       id="clipPath112">
      <path
         d="M 0,612 H 792 V 0 H 0 Z"
         transform="translate(-308.67441,-254.32671)"
         id="path112" />
    </clipPath>
    <clipPath
       clipPathUnits="userSpaceOnUse"
       id="clipPath114">
      <path
         d="M 0,612 H 792 V 0 H 0 Z"
         transform="translate(-303.34901,-250.14561)"
         id="path114" />
    </clipPath>
    <clipPath
       clipPathUnits="userSpaceOnUse"
       id="clipPath116">
      <path
         d="M 0,612 H 792 V 0 H 0 Z"
         transform="translate(-246.46381,-235.09701)"
         id="path116" />
    </clipPath>
    <clipPath
       clipPathUnits="userSpaceOnUse"
       id="clipPath118">
      <path
         d="M 0,612 H 792 V 0 H 0 Z"
         transform="translate(-259.09471,-232.0138)"
         id="path118" />
    </clipPath>
    <clipPath
       clipPathUnits="userSpaceOnUse"
       id="clipPath120">
      <path
         d="M 0,612 H 792 V 0 H 0 Z"
         transform="translate(-267.3109,-221.4709)"
         id="path120" />
    </clipPath>
    <clipPath
       clipPathUnits="userSpaceOnUse"
       id="clipPath122">
      <path
         d="M 0,612 H 792 V 0 H 0 Z"
         transform="translate(-276.10761,-224.8981)"
         id="path122" />
    </clipPath>
    <clipPath
       clipPathUnits="userSpaceOnUse"
       id="clipPath124">
      <path
         d="M 0,612 H 792 V 0 H 0 Z"
         transform="translate(-284.62711,-228.8584)"
         id="path124" />
    </clipPath>
    <clipPath
       clipPathUnits="userSpaceOnUse"
       id="clipPath126">
      <path
         d="M 0,612 H 792 V 0 H 0 Z"
         transform="translate(-269.0851,-291.84091)"
         id="path126" />
    </clipPath>
    <clipPath
       clipPathUnits="userSpaceOnUse"
       id="clipPath128">
      <path
         d="M 0,612 H 792 V 0 H 0 Z"
         transform="translate(-293.84781,-293.61051)"
         id="path128" />
    </clipPath>
    <clipPath
       clipPathUnits="userSpaceOnUse"
       id="clipPath130">
      <path
         d="M 0,612 H 792 V 0 H 0 Z"
         transform="translate(-252.43321,-285.42321)"
         id="path130" />
    </clipPath>
    <clipPath
       clipPathUnits="userSpaceOnUse"
       id="clipPath132">
      <path
         d="M 0,612 H 792 V 0 H 0 Z"
         transform="translate(-246.71101,-336.66781)"
         id="path132" />
    </clipPath>
    <clipPath
       clipPathUnits="userSpaceOnUse"
       id="clipPath134">
      <path
         d="M 0,612 H 792 V 0 H 0 Z"
         transform="translate(-281.791,-334.24691)"
         id="path134" />
    </clipPath>
    <clipPath
       clipPathUnits="userSpaceOnUse"
       id="clipPath136">
      <path
         d="M 0,612 H 792 V 0 H 0 Z"
         transform="translate(-288.3415,-327.69271)"
         id="path136" />
    </clipPath>
  </defs>
  <sodipodi:namedview
     id="namedview1"
     pagecolor="#ffffff"
     bordercolor="#000000"
     borderopacity="0.25"
     inkscape:showpageshadow="2"
     inkscape:pageopacity="0.0"
     inkscape:pagecheckerboard="0"
     inkscape:deskcolor="#d1d1d1">
    <inkscape:page
       x="0"
       y="0"
       width="544.45892"
       height="248.07599"
       id="page2"
       margin="0"
       bleed="0" />
  </sodipodi:namedview>
  <g
     id="layer-MC0"
     inkscape:groupmode="layer"
     inkscape:label="Capa 1"
     transform="translate(-255.77048,-283.96161)">
    <path
       id="path1"
       d="m 0,0 c -0.418,-0.95 -1.022,-1.684 -1.814,-2.201 -0.792,-0.519 -1.735,-0.778 -2.828,-0.778 -1.123,0 -2.087,0.259 -2.894,0.778 -0.806,0.517 -1.424,1.251 -1.855,2.201 -0.432,0.95 -0.648,2.087 -0.648,3.411 0,1.353 0.216,2.497 0.648,3.433 0.431,0.935 1.049,1.654 1.855,2.158 0.807,0.504 1.771,0.756 2.894,0.756 1.093,0 2.036,-0.252 2.828,-0.756 C -1.022,8.498 -0.418,7.779 0,6.844 0.416,5.908 0.626,4.764 0.626,3.411 0.626,2.087 0.416,0.95 0,0 m 0.82,13.04 c -1.598,0.95 -3.432,1.425 -5.506,1.425 -2.043,0 -3.879,-0.475 -5.504,-1.425 -1.627,-0.95 -2.901,-2.253 -3.822,-3.908 -0.921,-1.655 -1.382,-3.562 -1.382,-5.721 0,-2.13 0.467,-4.037 1.404,-5.72 0.935,-1.685 2.208,-3.002 3.82,-3.951 1.613,-0.95 3.441,-1.425 5.484,-1.425 2.074,0 3.916,0.481 5.528,1.446 1.612,0.964 2.878,2.281 3.799,3.951 0.921,1.669 1.382,3.569 1.382,5.699 0,2.159 -0.469,4.066 -1.404,5.721 C 3.684,10.787 2.417,12.09 0.82,13.04"
       style="fill:#1d1d1b;fill-opacity:1;fill-rule:nonzero;stroke:none"
       transform="matrix(1.3333333,0,0,-1.3333333,588.20333,445.93707)"
       clip-path="url(#clipPath2)" />
    <path
       id="path3"
       d="M 0,0 4.097,10.967 8.128,0 Z m 1.938,19.214 -12.09,-30.095 h 6.088 l 1.972,5.28 c 0.133,0.356 0.473,0.592 0.853,0.592 H 9.97 l 1.946,-5.296 c 0.127,-0.346 0.457,-0.576 0.826,-0.576 h 5.474 L 6.127,19.214 Z"
       style="fill:#1d1d1b;fill-opacity:1;fill-rule:nonzero;stroke:none"
       transform="matrix(1.3333333,0,0,-1.3333333,653.8364,441.1008)"
       clip-path="url(#clipPath4)" />
    <path
       id="path5"
       d="m 0,0 h -5.312 v 27.786 c 0,0.262 0.213,0.474 0.475,0.474 H 0 Z"
       style="fill:#1d1d1b;fill-opacity:1;fill-rule:nonzero;stroke:none"
       transform="matrix(1.3333333,0,0,-1.3333333,563.0124,455.60867)"
       clip-path="url(#clipPath6)" />
    <path
       id="path7"
       d="m 0,0 c -0.764,-0.518 -1.677,-0.778 -2.743,-0.778 -1.037,0 -1.943,0.252 -2.721,0.756 -0.777,0.503 -1.375,1.216 -1.792,2.138 -0.418,0.922 -0.626,2.015 -0.626,3.283 0,1.266 0.208,2.353 0.626,3.261 0.417,0.907 1.015,1.612 1.792,2.116 0.778,0.503 1.684,0.756 2.721,0.756 1.066,0 1.979,-0.253 2.743,-0.756 C 0.762,10.272 1.353,9.559 1.77,8.638 2.188,7.717 2.397,6.636 2.397,5.399 2.397,4.161 2.188,3.081 1.77,2.16 1.353,1.237 0.762,0.518 0,0 m 1.922,13.073 c -0.111,0.182 -0.219,0.366 -0.345,0.532 -0.72,0.95 -1.577,1.663 -2.571,2.138 -0.993,0.475 -2.066,0.713 -3.217,0.713 -1.641,0 -3.153,-0.44 -4.535,-1.317 -1.382,-0.879 -2.483,-2.138 -3.304,-3.78 -0.821,-1.641 -1.231,-3.628 -1.231,-5.96 0,-2.103 0.367,-3.995 1.101,-5.68 0.734,-1.684 1.778,-3.009 3.131,-3.974 1.353,-0.964 2.966,-1.447 4.838,-1.447 1.065,0 2.094,0.21 3.088,0.626 0.993,0.418 1.871,1.124 2.635,2.117 0.146,0.191 0.278,0.406 0.41,0.622 L 2.31,-5.269 H 7.234 V 22.99 H 2.562 c -0.354,0 -0.64,-0.287 -0.64,-0.64 z"
       style="fill:#1d1d1b;fill-opacity:1;fill-rule:nonzero;stroke:none"
       transform="matrix(1.3333333,0,0,-1.3333333,730.9996,448.582)"
       clip-path="url(#clipPath8)" />
    <path
       id="path9"
       d="m 0,0 c -0.764,-0.518 -1.677,-0.778 -2.743,-0.778 -1.037,0 -1.943,0.252 -2.721,0.756 -0.777,0.503 -1.375,1.216 -1.792,2.138 -0.418,0.922 -0.626,2.015 -0.626,3.283 0,1.266 0.208,2.353 0.626,3.261 0.417,0.907 1.015,1.612 1.792,2.116 0.778,0.503 1.684,0.756 2.721,0.756 1.066,0 1.979,-0.253 2.743,-0.756 C 0.762,10.272 1.353,9.559 1.77,8.638 2.188,7.717 2.397,6.636 2.397,5.399 2.397,4.161 2.188,3.081 1.77,2.16 1.353,1.237 0.762,0.518 0,0 m 1.922,13.073 c -0.111,0.182 -0.219,0.366 -0.345,0.532 -0.72,0.95 -1.577,1.663 -2.571,2.138 -0.993,0.475 -2.066,0.713 -3.217,0.713 -1.641,0 -3.153,-0.44 -4.535,-1.317 -1.382,-0.879 -2.483,-2.138 -3.304,-3.78 -0.821,-1.641 -1.231,-3.628 -1.231,-5.96 0,-2.103 0.367,-3.995 1.101,-5.68 0.734,-1.684 1.778,-3.009 3.131,-3.974 1.353,-0.964 2.966,-1.447 4.838,-1.447 1.065,0 2.094,0.21 3.088,0.626 0.993,0.418 1.871,1.124 2.635,2.117 0.146,0.191 0.278,0.406 0.41,0.622 L 2.31,-5.269 H 7.234 V 22.99 H 2.562 c -0.353,0 -0.64,-0.287 -0.64,-0.64 z"
       style="fill:#1d1d1b;fill-opacity:1;fill-rule:nonzero;stroke:none"
       transform="matrix(1.3333333,0,0,-1.3333333,489.5028,448.582)"
       clip-path="url(#clipPath10)" />
    <path
       id="path11"
       d="m 0,0 c -1.008,0 -1.987,-0.181 -2.937,-0.541 -0.95,-0.36 -1.786,-0.928 -2.505,-1.705 -0.29,-0.313 -0.544,-0.679 -0.778,-1.076 v 2.889 h -5.399 v -21.292 h 4.796 c 0.333,0 0.603,0.27 0.603,0.603 v 9.59 c 0,1.611 0.173,2.922 0.518,3.93 0.346,1.007 0.857,1.749 1.534,2.225 0.676,0.475 1.533,0.711 2.57,0.711 1.353,0 2.346,-0.41 2.98,-1.23 0.633,-0.82 0.95,-2.123 0.95,-3.909 v -11.92 h 4.796 c 0.333,0 0.603,0.27 0.603,0.603 v 13.304 c 0,2.476 -0.684,4.398 -2.052,5.766 C 4.312,-0.685 2.418,0 0,0"
       style="fill:#1d1d1b;fill-opacity:1;fill-rule:nonzero;stroke:none"
       transform="matrix(1.3333333,0,0,-1.3333333,697.63813,426.6416)"
       clip-path="url(#clipPath12)" />
    <path
       id="path13"
       d="m 0,0 c 0.086,0.719 0.308,1.418 0.669,2.095 0.36,0.676 0.899,1.231 1.619,1.662 0.72,0.433 1.613,0.648 2.678,0.648 0.721,0 1.361,-0.108 1.922,-0.323 C 7.451,3.865 7.932,3.556 8.335,3.153 8.739,2.749 9.055,2.281 9.286,1.749 9.463,1.338 9.572,0.906 9.613,0.452 9.635,0.209 9.427,0.004 9.182,0.004 Z M 12.266,5.722 C 11.46,6.716 10.437,7.494 9.199,8.055 7.961,8.616 6.506,8.898 4.838,8.898 3.051,8.898 1.518,8.573 0.237,7.925 -1.045,7.277 -2.088,6.42 -2.894,5.356 -3.701,4.29 -4.305,3.094 -4.708,1.77 -5.111,0.446 -5.312,-0.907 -5.312,-2.29 c 0,-1.439 0.201,-2.815 0.604,-4.124 0.403,-1.311 1.029,-2.477 1.879,-3.499 0.849,-1.022 1.936,-1.835 3.261,-2.44 1.323,-0.605 2.908,-0.907 4.751,-0.907 1.237,0 2.339,0.108 3.304,0.324 0.964,0.216 1.892,0.568 2.786,1.058 0.892,0.49 1.842,1.124 2.85,1.901 L 11.446,-6.35 C 10.639,-7.07 9.717,-7.624 8.681,-8.012 7.644,-8.401 6.579,-8.596 5.485,-8.596 c -1.498,0 -2.742,0.39 -3.736,1.167 -0.83,0.65 -1.364,1.562 -1.601,2.736 -0.074,0.368 0.193,0.719 0.569,0.719 l 13.881,0.001 c 0.057,0.402 0.093,0.784 0.108,1.144 0.014,0.36 0.022,0.64 0.022,0.842 0,1.497 -0.21,2.908 -0.626,4.232 -0.418,1.325 -1.03,2.484 -1.836,3.477"
       style="fill:#1d1d1b;fill-opacity:1;fill-rule:nonzero;stroke:none"
       transform="matrix(1.3333333,0,0,-1.3333333,753.4196,438.50387)"
       clip-path="url(#clipPath14)" />
    <path
       id="path15"
       d="m 0,0 c -0.806,0.49 -1.67,0.878 -2.591,1.167 -0.922,0.287 -1.814,0.532 -2.678,0.734 -0.922,0.23 -1.662,0.438 -2.225,0.626 -0.561,0.187 -0.964,0.41 -1.209,0.67 -0.244,0.258 -0.367,0.575 -0.367,0.949 0,0.548 0.267,0.979 0.8,1.296 0.532,0.317 1.215,0.476 2.05,0.476 0.951,0 1.851,-0.21 2.7,-0.626 0.668,-0.33 1.235,-0.788 1.699,-1.376 0.213,-0.27 0.614,-0.297 0.883,-0.084 l 2.796,2.215 c -0.807,1.267 -1.901,2.238 -3.283,2.915 -1.383,0.676 -2.923,1.016 -4.622,1.016 -2.826,0 -5.004,-0.798 -6.533,-2.39 -1.021,-1.062 -1.509,-2.493 -1.5,-3.966 0.006,-1.1 0.229,-2.02 0.669,-2.758 0.447,-0.749 1.03,-1.36 1.75,-1.835 0.719,-0.476 1.511,-0.858 2.375,-1.146 0.864,-0.287 1.699,-0.547 2.505,-0.776 0.778,-0.202 1.483,-0.411 2.116,-0.626 0.633,-0.217 1.138,-0.49 1.512,-0.821 0.375,-0.332 0.562,-0.756 0.562,-1.274 0,-0.634 -0.296,-1.159 -0.886,-1.577 -0.591,-0.417 -1.418,-0.626 -2.483,-0.626 -1.354,0 -2.483,0.338 -3.391,1.014 -0.694,0.518 -1.266,1.074 -1.715,1.668 -0.221,0.292 -0.647,0.325 -0.923,0.084 l -3.127,-2.723 c 0.489,-0.634 1.144,-1.296 1.965,-1.987 0.821,-0.691 1.82,-1.267 3.001,-1.728 1.181,-0.459 2.563,-0.691 4.147,-0.691 1.756,0 3.282,0.303 4.578,0.907 1.295,0.605 2.303,1.448 3.023,2.527 0.72,1.08 1.08,2.325 1.08,3.736 0,1.238 -0.245,2.261 -0.735,3.067 C 1.454,-1.138 0.806,-0.49 0,0"
       style="fill:#1d1d1b;fill-opacity:1;fill-rule:nonzero;stroke:none"
       transform="matrix(1.3333333,0,0,-1.3333333,796.65907,439.9444)"
       clip-path="url(#clipPath16)" />
    <path
       id="path17"
       d="m 0,0 c -0.806,0.49 -1.67,0.878 -2.591,1.167 -0.922,0.287 -1.814,0.532 -2.678,0.734 -0.922,0.23 -1.662,0.438 -2.225,0.626 -0.561,0.187 -0.964,0.41 -1.209,0.67 -0.244,0.258 -0.367,0.575 -0.367,0.949 0,0.548 0.267,0.979 0.8,1.296 0.532,0.317 1.215,0.476 2.05,0.476 0.951,0 1.851,-0.21 2.7,-0.626 0.668,-0.33 1.235,-0.788 1.699,-1.376 0.213,-0.27 0.614,-0.297 0.883,-0.084 l 2.796,2.215 c -0.807,1.267 -1.901,2.238 -3.283,2.915 -1.383,0.676 -2.923,1.016 -4.622,1.016 -2.826,0 -5.004,-0.798 -6.533,-2.39 -1.021,-1.062 -1.509,-2.493 -1.5,-3.966 0.006,-1.1 0.229,-2.02 0.669,-2.758 0.447,-0.749 1.03,-1.36 1.75,-1.835 0.719,-0.476 1.511,-0.858 2.375,-1.146 0.864,-0.287 1.699,-0.547 2.505,-0.776 0.778,-0.202 1.483,-0.411 2.116,-0.626 0.633,-0.217 1.138,-0.49 1.512,-0.821 0.375,-0.332 0.562,-0.756 0.562,-1.274 0,-0.634 -0.296,-1.159 -0.886,-1.577 -0.591,-0.417 -1.418,-0.626 -2.483,-0.626 -1.354,0 -2.483,0.338 -3.391,1.014 -0.694,0.518 -1.266,1.074 -1.715,1.668 -0.221,0.292 -0.646,0.325 -0.923,0.084 l -3.127,-2.723 c 0.489,-0.634 1.144,-1.296 1.965,-1.987 0.821,-0.691 1.82,-1.267 3.001,-1.728 1.181,-0.459 2.563,-0.691 4.147,-0.691 1.756,0 3.282,0.303 4.578,0.907 1.295,0.605 2.303,1.448 3.023,2.527 0.72,1.08 1.08,2.325 1.08,3.736 0,1.238 -0.245,2.261 -0.735,3.067 C 1.454,-1.138 0.806,-0.49 0,0"
       style="fill:#1d1d1b;fill-opacity:1;fill-rule:nonzero;stroke:none"
       transform="matrix(1.3333333,0,0,-1.3333333,619.778,439.9444)"
       clip-path="url(#clipPath18)" />
    <path
       id="path19"
       d="m 0,0 c 0.087,0.719 0.308,1.418 0.669,2.095 0.36,0.676 0.899,1.231 1.619,1.662 0.72,0.433 1.613,0.648 2.678,0.648 0.721,0 1.361,-0.108 1.922,-0.323 C 7.451,3.865 7.932,3.556 8.335,3.153 8.739,2.749 9.055,2.281 9.286,1.749 9.463,1.338 9.572,0.906 9.613,0.452 9.635,0.209 9.427,0.004 9.182,0.004 Z M 12.266,5.722 C 11.46,6.716 10.437,7.494 9.199,8.055 7.961,8.616 6.506,8.898 4.838,8.898 3.051,8.898 1.518,8.573 0.237,7.925 -1.045,7.277 -2.088,6.42 -2.894,5.356 -3.701,4.29 -4.305,3.094 -4.708,1.77 -5.111,0.446 -5.312,-0.907 -5.312,-2.29 c 0,-1.439 0.201,-2.815 0.604,-4.124 0.403,-1.311 1.029,-2.477 1.879,-3.499 0.849,-1.022 1.936,-1.835 3.261,-2.44 1.323,-0.605 2.908,-0.907 4.751,-0.907 1.237,0 2.339,0.108 3.304,0.324 0.964,0.216 1.892,0.568 2.786,1.058 0.892,0.49 1.842,1.124 2.85,1.901 L 11.446,-6.35 C 10.639,-7.07 9.717,-7.624 8.681,-8.012 7.644,-8.401 6.579,-8.596 5.485,-8.596 c -1.497,0 -2.742,0.39 -3.736,1.167 -0.83,0.65 -1.364,1.562 -1.601,2.736 -0.074,0.368 0.193,0.719 0.569,0.719 l 13.881,0.001 c 0.057,0.402 0.093,0.784 0.108,1.144 0.014,0.36 0.022,0.64 0.022,0.842 0,1.497 -0.21,2.908 -0.626,4.232 -0.418,1.325 -1.03,2.484 -1.836,3.477"
       style="fill:#1d1d1b;fill-opacity:1;fill-rule:nonzero;stroke:none"
       transform="matrix(1.3333333,0,0,-1.3333333,511.916,438.50387)"
       clip-path="url(#clipPath20)" />
    <path
       id="path21"
       d="m 0,0 v 18.998 h -4.665 c -0.5,0 -0.906,-0.405 -0.906,-0.906 V 0.388 c 0,-1.526 -0.172,-2.813 -0.517,-3.864 -0.346,-1.051 -0.958,-1.843 -1.836,-2.374 -0.879,-0.534 -2.093,-0.8 -3.648,-0.8 -1.555,0 -2.771,0.266 -3.648,0.8 -0.879,0.531 -1.483,1.323 -1.814,2.374 -0.331,1.051 -0.497,2.353 -0.497,3.908 v 18.566 h -4.664 c -0.5,0 -0.905,-0.405 -0.905,-0.906 V -0.216 c 0,-3.858 0.97,-6.75 2.913,-8.679 1.945,-1.928 4.815,-2.893 8.615,-2.893 3.799,0 6.677,0.986 8.635,2.958 C -0.98,-6.858 0,-3.915 0,0"
       style="fill:#1d1d1b;fill-opacity:1;fill-rule:nonzero;stroke:none"
       transform="matrix(1.3333333,0,0,-1.3333333,502.5956,382.20493)"
       clip-path="url(#clipPath22)" />
    <path
       id="path23"
       d="m 0,0 v 21.286 h -4.756 c -0.33,0 -0.597,-0.267 -0.597,-0.597 V 0 Z"
       style="fill:#1d1d1b;fill-opacity:1;fill-rule:nonzero;stroke:none"
       transform="matrix(1.3333333,0,0,-1.3333333,549.1672,397.00053)"
       clip-path="url(#clipPath24)" />
    <path
       id="path25"
       d="m 0,0 -4.824,13.765 c -0.111,0.315 -0.408,0.526 -0.742,0.526 h -5.315 l 8.722,-21.286 h 3.801 c 0.365,0 0.693,0.221 0.831,0.559 l 8.408,20.727 H 5.096 Z"
       style="fill:#1d1d1b;fill-opacity:1;fill-rule:nonzero;stroke:none"
       transform="matrix(1.3333333,0,0,-1.3333333,568.05053,387.67373)"
       clip-path="url(#clipPath26)" />
    <path
       id="path27"
       d="M 0,0 C 0.489,0 0.978,-0.072 1.469,-0.216 1.958,-0.36 2.361,-0.518 2.678,-0.69 l 2.59,4.835 C 4.577,4.577 3.908,4.886 3.26,5.074 2.612,5.26 1.929,5.354 1.21,5.354 0.202,5.354 -0.784,5.088 -1.749,4.555 -2.713,4.022 -3.525,3.282 -4.187,2.332 -4.3,2.17 -4.394,1.997 -4.49,1.827 v 3.095 h -5.397 v -21.286 h 4.795 c 0.332,0 0.602,0.27 0.602,0.602 v 8.552 c 0,1.179 0.036,2.079 0.109,2.698 0.071,0.619 0.164,1.129 0.279,1.533 0.26,0.719 0.598,1.295 1.016,1.727 0.416,0.432 0.892,0.748 1.424,0.95 C -1.129,-0.101 -0.576,0 0,0"
       style="fill:#1d1d1b;fill-opacity:1;fill-rule:nonzero;stroke:none"
       transform="matrix(1.3333333,0,0,-1.3333333,630.28133,375.18187)"
       clip-path="url(#clipPath28)" />
    <path
       id="path29"
       d="m 0,0 c -0.474,-0.735 -1.107,-1.311 -1.899,-1.728 -0.792,-0.417 -1.662,-0.626 -2.613,-0.626 -1.065,0 -1.915,0.245 -2.547,0.734 -0.633,0.489 -0.95,1.137 -0.95,1.944 0,0.373 0.071,0.712 0.216,1.014 0.144,0.302 0.36,0.554 0.647,0.756 0.317,0.259 0.698,0.424 1.145,0.497 0.446,0.071 0.899,0.107 1.36,0.107 H 0.713 V 2.525 C 0.713,1.576 0.475,0.734 0,0 M 1.145,-6.24 H 6.066 V 7.188 c 0,2.592 -0.82,4.621 -2.46,6.088 -1.641,1.469 -3.929,2.203 -6.866,2.203 -1.812,0 -3.504,-0.267 -5.072,-0.799 -1.57,-0.533 -3.103,-1.404 -4.599,-2.612 l 2.72,-3.671 c 0.893,0.807 1.922,1.432 3.087,1.879 1.166,0.446 2.311,0.669 3.432,0.669 1.353,0 2.426,-0.31 3.218,-0.928 C 0.317,9.398 0.713,8.455 0.713,7.188 V 6.67 h -6.132 c -1.008,0 -1.95,-0.086 -2.828,-0.258 -0.877,-0.173 -1.677,-0.475 -2.396,-0.907 -0.834,-0.461 -1.504,-1.13 -2.007,-2.008 -0.505,-0.879 -0.756,-1.936 -0.756,-3.173 0,-1.382 0.352,-2.606 1.057,-3.671 0.706,-1.065 1.67,-1.885 2.894,-2.461 1.222,-0.575 2.612,-0.863 4.167,-0.863 1.093,0 2.129,0.216 3.107,0.647 0.979,0.432 1.85,1.115 2.613,2.051 0.121,0.149 0.23,0.318 0.341,0.481 z"
       style="fill:#1d1d1b;fill-opacity:1;fill-rule:nonzero;stroke:none"
       transform="matrix(1.3333333,0,0,-1.3333333,731.80507,388.6812)"
       clip-path="url(#clipPath30)" />
    <path
       id="path31"
       d="m 0,0 c 0,-1.598 -1.295,-2.893 -2.893,-2.893 -1.597,0 -2.892,1.295 -2.892,2.893 0,1.598 1.295,2.893 2.892,2.893 C -1.295,2.893 0,1.598 0,0"
       style="fill:#1d1d1b;fill-opacity:1;fill-rule:nonzero;stroke:none"
       transform="matrix(1.3333333,0,0,-1.3333333,549.45493,360.55853)"
       clip-path="url(#clipPath32)" />
    <path
       id="path33"
       d="m 0,0 c 0,-1.598 -1.295,-2.893 -2.893,-2.893 -1.597,0 -2.892,1.295 -2.892,2.893 0,1.598 1.295,2.893 2.892,2.893 C -1.295,2.893 0,1.598 0,0"
       style="fill:#1d1d1b;fill-opacity:1;fill-rule:nonzero;stroke:none"
       transform="matrix(1.3333333,0,0,-1.3333333,675.38693,360.55853)"
       clip-path="url(#clipPath34)" />
    <path
       id="path35"
       d="m 0,0 c -0.764,-0.518 -1.677,-0.778 -2.743,-0.778 -1.037,0 -1.943,0.252 -2.721,0.756 -0.777,0.503 -1.375,1.216 -1.792,2.139 -0.418,0.921 -0.626,2.014 -0.626,3.282 0,1.266 0.208,2.353 0.626,3.261 0.417,0.907 1.015,1.612 1.792,2.116 0.778,0.503 1.684,0.756 2.721,0.756 1.066,0 1.979,-0.253 2.743,-0.756 C 0.762,10.272 1.353,9.559 1.77,8.638 2.188,7.717 2.397,6.636 2.397,5.399 2.397,4.161 2.188,3.081 1.77,2.16 1.353,1.237 0.762,0.518 0,0 m 1.922,13.073 c -0.111,0.182 -0.219,0.366 -0.345,0.532 -0.72,0.95 -1.577,1.663 -2.571,2.138 -0.993,0.475 -2.066,0.713 -3.217,0.713 -1.641,0 -3.153,-0.44 -4.535,-1.317 -1.382,-0.879 -2.483,-2.138 -3.304,-3.78 -0.821,-1.641 -1.231,-3.628 -1.231,-5.96 0,-2.103 0.367,-3.995 1.101,-5.68 0.734,-1.684 1.778,-3.009 3.131,-3.974 1.353,-0.964 2.966,-1.447 4.838,-1.447 1.065,0 2.094,0.21 3.088,0.626 0.993,0.418 1.871,1.124 2.635,2.117 0.147,0.191 0.278,0.406 0.41,0.622 L 2.31,-5.269 H 7.234 V 22.99 H 2.562 c -0.353,0 -0.64,-0.287 -0.64,-0.64 z"
       style="fill:#1d1d1b;fill-opacity:1;fill-rule:nonzero;stroke:none"
       transform="matrix(1.3333333,0,0,-1.3333333,698.46987,389.974)"
       clip-path="url(#clipPath36)" />
    <path
       id="path37"
       d="m 0,0 c -0.764,-0.518 -1.677,-0.778 -2.743,-0.778 -1.037,0 -1.943,0.252 -2.721,0.756 -0.777,0.503 -1.375,1.216 -1.792,2.139 -0.418,0.921 -0.626,2.014 -0.626,3.282 0,1.266 0.208,2.353 0.626,3.261 0.417,0.907 1.015,1.612 1.792,2.116 0.778,0.503 1.684,0.756 2.721,0.756 1.066,0 1.979,-0.253 2.743,-0.756 C 0.762,10.272 1.353,9.559 1.77,8.638 2.188,7.717 2.397,6.636 2.397,5.399 2.397,4.161 2.188,3.081 1.77,2.16 1.353,1.237 0.762,0.518 0,0 m 1.922,13.073 c -0.111,0.182 -0.219,0.366 -0.345,0.532 -0.72,0.95 -1.577,1.663 -2.571,2.138 -0.993,0.475 -2.066,0.713 -3.217,0.713 -1.641,0 -3.153,-0.44 -4.535,-1.317 -1.382,-0.879 -2.483,-2.138 -3.304,-3.78 -0.821,-1.641 -1.231,-3.628 -1.231,-5.96 0,-2.103 0.367,-3.995 1.101,-5.68 0.734,-1.684 1.778,-3.009 3.131,-3.974 1.353,-0.964 2.966,-1.447 4.838,-1.447 1.065,0 2.094,0.21 3.088,0.626 0.993,0.418 1.871,1.124 2.635,2.117 0.146,0.191 0.278,0.406 0.41,0.622 L 2.31,-5.269 H 7.234 V 22.99 H 2.562 c -0.354,0 -0.64,-0.287 -0.64,-0.64 z"
       style="fill:#1d1d1b;fill-opacity:1;fill-rule:nonzero;stroke:none"
       transform="matrix(1.3333333,0,0,-1.3333333,762.94747,389.974)"
       clip-path="url(#clipPath38)" />
    <path
       id="path39"
       d="m 0,0 c -1.008,0 -1.987,-0.181 -2.937,-0.541 -0.95,-0.36 -1.786,-0.928 -2.505,-1.705 -0.29,-0.313 -0.544,-0.679 -0.778,-1.076 v 2.889 h -5.399 v -21.292 h 4.796 c 0.333,0 0.603,0.27 0.603,0.603 v 9.59 c 0,1.611 0.173,2.922 0.518,3.93 0.346,1.007 0.857,1.749 1.534,2.225 0.676,0.475 1.533,0.711 2.57,0.711 1.352,0 2.346,-0.41 2.98,-1.23 0.633,-0.82 0.95,-2.123 0.95,-3.909 v -11.92 h 4.796 c 0.333,0 0.603,0.27 0.603,0.603 v 13.304 c 0,2.476 -0.684,4.398 -2.052,5.766 C 4.312,-0.685 2.418,0 0,0"
       style="fill:#1d1d1b;fill-opacity:1;fill-rule:nonzero;stroke:none"
       transform="matrix(1.3333333,0,0,-1.3333333,525.10907,368.03213)"
       clip-path="url(#clipPath40)" />
    <path
       id="path41"
       d="m 0,0 c 0.087,0.719 0.308,1.418 0.669,2.095 0.36,0.676 0.899,1.231 1.619,1.662 0.72,0.433 1.613,0.648 2.678,0.648 0.721,0 1.361,-0.108 1.922,-0.323 C 7.45,3.865 7.932,3.556 8.335,3.153 8.739,2.749 9.055,2.281 9.286,1.749 9.463,1.338 9.572,0.906 9.613,0.452 9.635,0.209 9.427,0.004 9.182,0.004 Z M 12.266,5.722 C 11.46,6.716 10.437,7.494 9.199,8.055 7.961,8.616 6.506,8.898 4.838,8.898 3.051,8.898 1.518,8.573 0.237,7.925 -1.045,7.277 -2.088,6.42 -2.894,5.356 -3.701,4.29 -4.305,3.094 -4.708,1.77 -5.111,0.446 -5.312,-0.907 -5.312,-2.29 c 0,-1.439 0.201,-2.815 0.604,-4.124 0.403,-1.311 1.029,-2.477 1.879,-3.499 0.849,-1.022 1.936,-1.835 3.261,-2.44 1.323,-0.605 2.908,-0.907 4.751,-0.907 1.237,0 2.339,0.108 3.304,0.324 0.964,0.216 1.892,0.568 2.786,1.058 0.892,0.49 1.842,1.124 2.85,1.901 L 11.446,-6.35 C 10.639,-7.07 9.717,-7.624 8.681,-8.012 7.644,-8.401 6.579,-8.596 5.485,-8.596 c -1.498,0 -2.742,0.39 -3.736,1.167 -0.83,0.65 -1.364,1.562 -1.601,2.736 -0.074,0.368 0.193,0.719 0.569,0.719 l 13.881,0.001 c 0.057,0.402 0.093,0.784 0.108,1.144 0.014,0.36 0.022,0.64 0.022,0.842 0,1.497 -0.21,2.908 -0.626,4.232 -0.418,1.325 -1.03,2.484 -1.836,3.477"
       style="fill:#1d1d1b;fill-opacity:1;fill-rule:nonzero;stroke:none"
       transform="matrix(1.3333333,0,0,-1.3333333,591.71227,379.8956)"
       clip-path="url(#clipPath42)" />
    <path
       id="path43"
       d="m 0,0 c -0.806,0.49 -1.67,0.878 -2.591,1.167 -0.922,0.287 -1.814,0.532 -2.678,0.734 -0.922,0.23 -1.662,0.438 -2.225,0.626 -0.561,0.187 -0.964,0.41 -1.209,0.67 -0.244,0.258 -0.367,0.575 -0.367,0.949 0,0.548 0.267,0.979 0.8,1.296 0.532,0.317 1.215,0.476 2.05,0.476 0.951,0 1.851,-0.21 2.7,-0.626 0.668,-0.33 1.235,-0.788 1.699,-1.376 0.213,-0.27 0.614,-0.297 0.883,-0.084 l 2.796,2.215 c -0.807,1.267 -1.901,2.238 -3.283,2.915 -1.383,0.676 -2.923,1.016 -4.622,1.016 -2.826,0 -5.004,-0.798 -6.533,-2.39 -1.021,-1.062 -1.509,-2.493 -1.5,-3.966 0.006,-1.1 0.229,-2.02 0.669,-2.758 0.447,-0.749 1.03,-1.36 1.75,-1.835 0.719,-0.476 1.511,-0.858 2.375,-1.146 0.864,-0.287 1.699,-0.547 2.505,-0.776 0.778,-0.202 1.483,-0.411 2.116,-0.626 0.633,-0.217 1.138,-0.49 1.512,-0.821 0.375,-0.332 0.562,-0.756 0.562,-1.274 0,-0.634 -0.296,-1.159 -0.886,-1.577 -0.591,-0.417 -1.418,-0.626 -2.483,-0.626 -1.354,0 -2.483,0.338 -3.391,1.014 -0.694,0.518 -1.266,1.074 -1.715,1.668 -0.221,0.292 -0.647,0.325 -0.923,0.084 l -3.127,-2.723 c 0.489,-0.634 1.144,-1.296 1.965,-1.987 0.821,-0.691 1.82,-1.267 3.001,-1.728 1.181,-0.459 2.563,-0.691 4.147,-0.691 1.756,0 3.282,0.303 4.578,0.907 1.295,0.605 2.303,1.448 3.023,2.527 0.72,1.08 1.08,2.325 1.08,3.736 0,1.238 -0.245,2.261 -0.735,3.067 C 1.454,-1.138 0.806,-0.49 0,0"
       style="fill:#1d1d1b;fill-opacity:1;fill-rule:nonzero;stroke:none"
       transform="matrix(1.3333333,0,0,-1.3333333,658.66973,381.3468)"
       clip-path="url(#clipPath44)" />
    <path
       id="path45"
       d="m 0,0 v 21.286 h -4.756 c -0.33,0 -0.597,-0.267 -0.597,-0.597 V 0 Z"
       style="fill:#1d1d1b;fill-opacity:1;fill-rule:nonzero;stroke:none"
       transform="matrix(1.3333333,0,0,-1.3333333,675.09907,397.00053)"
       clip-path="url(#clipPath46)" />
    <path
       id="path47"
       d="m 0,0 c -36.727,0 -66.605,40.719 -66.605,90.77 0,50.051 29.878,90.77 66.605,90.77 36.727,0 66.606,-40.719 66.606,-90.77 C 66.606,40.719 36.727,0 0,0 m 0,183.799 c -37.963,0 -68.739,-41.65 -68.739,-93.029 0,-51.378 30.776,-93.028 68.739,-93.028 37.964,0 68.739,41.65 68.739,93.028 0,51.379 -30.775,93.029 -68.739,93.029"
       style="fill:#1d1d1b;fill-opacity:1;fill-rule:nonzero;stroke:none"
       transform="matrix(1.3333333,0,0,-1.3333333,347.4228,529.02693)"
       clip-path="url(#clipPath48)" />
    <path
       id="path49"
       d="m 0,0 c -0.837,0 -1.516,-0.679 -1.516,-1.516 0,-0.837 0.679,-1.516 1.516,-1.516 0.837,0 1.516,0.679 1.516,1.516 C 1.516,-0.679 0.837,0 0,0"
       style="fill:#1d1d1b;fill-opacity:1;fill-rule:nonzero;stroke:none"
       transform="matrix(1.3333333,0,0,-1.3333333,307.22947,494.33413)"
       clip-path="url(#clipPath50)" />
    <path
       id="path51"
       d="m 0,0 c -0.837,0 -1.516,-0.679 -1.516,-1.516 0,-0.837 0.679,-1.516 1.516,-1.516 0.837,0 1.516,0.679 1.516,1.516 C 1.516,-0.679 0.837,0 0,0"
       style="fill:#1d1d1b;fill-opacity:1;fill-rule:nonzero;stroke:none"
       transform="matrix(1.3333333,0,0,-1.3333333,388.92933,494.33413)"
       clip-path="url(#clipPath52)" />
    <path
       id="path53"
       d="M 0,0 V 66.554 H 42.484 C 42.117,30.315 23.305,0.919 0,0 M -44.725,66.554 H -2.241 V 0 C -25.546,0.919 -44.358,30.316 -44.725,66.554 M -2.241,135.26 V 68.795 h -42.482 c 0.396,36.198 19.196,65.547 42.482,66.465 M 42.483,68.795 H 0 v 66.465 c 23.286,-0.917 42.086,-30.267 42.483,-66.465 m -43.603,68.75 c -25.33,0 -45.863,-31.302 -45.863,-69.915 0,-38.613 20.533,-69.914 45.863,-69.914 25.329,0 45.862,31.301 45.862,69.914 0,38.613 -20.533,69.915 -45.862,69.915"
       style="fill:#1d1d1b;fill-opacity:1;fill-rule:nonzero;stroke:none"
       transform="matrix(1.3333333,0,0,-1.3333333,348.9288,498.17347)"
       clip-path="url(#clipPath54)" />
    <path
       id="path55"
       d="m 0,0 c -0.377,-0.076 -0.711,-0.131 -0.992,-0.164 -0.32,-0.035 -0.479,-0.028 -0.556,-0.015 h -0.127 l -0.296,-0.206 1.052,-1.487 0.171,-0.189 0.285,0.213 0.029,0.053 c 0.01,0.012 0.032,0.033 0.074,0.062 0.161,0.114 0.344,0.198 0.544,0.248 0.232,0.058 0.446,0.11 0.637,0.156 l 7.49,1.583 -3.97,-6.662 C 4.188,-6.658 4.049,-6.852 3.93,-6.985 3.813,-7.115 3.696,-7.222 3.583,-7.303 3.556,-7.322 3.523,-7.342 3.451,-7.382 l -0.322,-0.21 1.353,-1.911 0.175,-0.193 0.281,0.206 0.024,0.087 c 0.008,0.032 0.036,0.104 0.08,0.21 0.048,0.119 0.112,0.262 0.192,0.427 0.081,0.168 0.174,0.352 0.278,0.551 0.104,0.199 0.216,0.399 0.336,0.601 l 5.308,8.916 -0.543,0.769 z"
       style="fill:#1d1d1b;fill-opacity:1;fill-rule:nonzero;stroke:none"
       transform="matrix(1.3333333,0,0,-1.3333333,286.58067,478.96)"
       clip-path="url(#clipPath56)" />
    <path
       id="path57"
       d="m 0,0 4.469,2.168 c 0.387,0.188 0.727,0.347 1.02,0.478 0.29,0.13 0.543,0.236 0.759,0.318 0.211,0.082 0.391,0.143 0.539,0.184 0.144,0.041 0.267,0.072 0.369,0.089 L 7.481,3.382 6.776,4.834 6.638,5.05 6.409,4.94 6.35,4.901 C 6.273,4.831 6.173,4.755 6.051,4.67 5.925,4.581 5.764,4.478 5.569,4.362 5.371,4.243 5.132,4.11 4.85,3.963 4.566,3.814 4.23,3.646 3.844,3.458 L -0.274,1.46 3.624,11.682 3.348,12.251 -4.173,8.602 C -4.56,8.415 -4.898,8.255 -5.193,8.125 -5.483,7.995 -5.737,7.888 -5.954,7.805 -6.169,7.723 -6.351,7.659 -6.499,7.614 -6.641,7.572 -6.763,7.541 -6.864,7.524 l -0.324,-0.146 0.704,-1.452 0.139,-0.215 0.228,0.109 0.06,0.04 c 0.078,0.07 0.178,0.148 0.298,0.236 0.125,0.09 0.286,0.193 0.482,0.312 0.2,0.119 0.441,0.252 0.723,0.399 0.285,0.15 0.62,0.318 1.006,0.506 l 4.255,2.065 -3.904,-10.227 0.261,-0.538 0.139,-0.215 0.228,0.11 0.059,0.039 c 0.077,0.069 0.177,0.148 0.3,0.237 0.125,0.091 0.285,0.193 0.482,0.31 0.2,0.12 0.441,0.254 0.722,0.401 C -0.722,-0.356 -0.387,-0.187 0,0"
       style="fill:#1d1d1b;fill-opacity:1;fill-rule:nonzero;stroke:none"
       transform="matrix(1.3333333,0,0,-1.3333333,285.56787,473.44893)"
       clip-path="url(#clipPath58)" />
    <path
       id="path59"
       d="m 0,0 4.681,1.667 c 0.404,0.144 0.76,0.264 1.065,0.363 0.302,0.098 0.566,0.175 0.788,0.234 0.221,0.057 0.408,0.1 0.559,0.128 0.145,0.027 0.27,0.044 0.372,0.05 L 7.803,2.552 7.106,4.511 6.992,4.74 6.752,4.655 6.688,4.622 C 6.603,4.562 6.497,4.495 6.367,4.42 6.234,4.345 6.064,4.262 5.858,4.17 5.646,4.075 5.391,3.969 5.095,3.85 4.798,3.731 4.447,3.6 4.043,3.456 L -0.637,1.789 C -1.04,1.645 -1.396,1.525 -1.701,1.43 -2.006,1.335 -2.272,1.256 -2.499,1.194 -2.718,1.134 -2.903,1.092 -3.054,1.066 -3.202,1.042 -3.328,1.026 -3.432,1.019 l -0.338,-0.11 0.698,-1.959 0.113,-0.229 0.24,0.084 0.064,0.034 c 0.084,0.06 0.191,0.124 0.319,0.195 0.136,0.075 0.309,0.16 0.517,0.256 0.213,0.095 0.468,0.203 0.764,0.319 C -0.756,-0.274 -0.405,-0.143 0,0"
       style="fill:#1d1d1b;fill-opacity:1;fill-rule:nonzero;stroke:none"
       transform="matrix(1.3333333,0,0,-1.3333333,277.96053,456.35)"
       clip-path="url(#clipPath60)" />
    <path
       id="path61"
       d="M 0,0 8.165,6.404 7.935,7.317 -2.711,9.211 c -0.384,0.066 -0.716,0.135 -0.985,0.206 -0.311,0.081 -0.456,0.145 -0.522,0.185 l -0.119,0.046 -0.352,-0.085 0.446,-1.767 0.092,-0.238 0.343,0.094 0.048,0.042 c 0.013,0.007 0.039,0.018 0.089,0.031 0.19,0.049 0.391,0.06 0.599,0.034 0.236,-0.028 0.453,-0.056 0.648,-0.084 L 5.134,6.453 -0.97,1.67 C -1.203,1.492 -1.403,1.36 -1.562,1.279 -1.72,1.2 -1.867,1.142 -1.995,1.109 -2.028,1.102 -2.066,1.094 -2.152,1.082 l -0.049,0.007 -0.328,-0.08 0.575,-2.277 0.091,-0.238 0.337,0.081 0.056,0.078 c 0.02,0.028 0.071,0.083 0.15,0.167 0.088,0.093 0.199,0.202 0.332,0.327 0.136,0.127 0.289,0.267 0.458,0.415 C -0.361,-0.291 -0.185,-0.145 0,0"
       style="fill:#1d1d1b;fill-opacity:1;fill-rule:nonzero;stroke:none"
       transform="matrix(1.3333333,0,0,-1.3333333,274.024,449.36147)"
       clip-path="url(#clipPath62)" />
    <path
       id="path63"
       d="m 0,0 c 0.227,0.052 0.498,0.106 0.811,0.161 0.316,0.056 0.687,0.114 1.112,0.175 l 4.919,0.703 c 0.425,0.062 0.797,0.109 1.115,0.144 0.317,0.035 0.59,0.059 0.82,0.073 0.226,0.012 0.416,0.014 0.568,0.012 0.15,-0.006 0.277,-0.015 0.38,-0.03 L 10.078,1.286 9.576,4.795 9.438,5.894 C 9.417,6.055 9.399,6.211 9.382,6.359 L 9.34,6.763 C 9.328,6.88 9.321,6.967 9.317,7.026 L 9.304,7.258 7.415,7.324 7.573,6.956 C 7.717,6.619 7.854,6.241 7.984,5.826 8.1,5.472 8.22,5.047 8.34,4.562 8.442,4.152 8.532,3.698 8.607,3.21 L 4.38,2.605 C 4.349,2.859 4.324,3.123 4.305,3.398 4.28,3.765 4.264,4.106 4.254,4.421 4.243,4.788 4.235,5.148 4.23,5.5 L 4.227,5.735 2.494,5.854 2.602,5.5 C 2.679,5.248 2.756,4.956 2.833,4.625 2.9,4.339 2.976,3.989 3.06,3.578 3.13,3.236 3.199,2.858 3.265,2.445 L -0.366,1.926 -0.428,2.24 C -0.46,2.392 -0.492,2.551 -0.524,2.717 -0.554,2.881 -0.578,3.022 -0.595,3.139 -0.645,3.487 -0.676,3.8 -0.687,4.067 -0.698,4.341 -0.703,4.573 -0.7,4.764 c 0.003,0.217 0.015,0.407 0.036,0.572 l 0.03,0.232 -1.728,0.369 0.146,-0.426 c 0.028,-0.08 0.078,-0.267 0.158,-0.703 0.068,-0.364 0.142,-0.804 0.223,-1.318 0.082,-0.517 0.17,-1.087 0.264,-1.707 0.094,-0.621 0.186,-1.246 0.276,-1.875 l 0.065,-0.246 0.251,0.035 0.071,0.02 c 0.094,0.043 0.213,0.087 0.355,0.133 C -0.407,-0.102 -0.222,-0.052 0,0"
       style="fill:#1d1d1b;fill-opacity:1;fill-rule:nonzero;stroke:none"
       transform="matrix(1.3333333,0,0,-1.3333333,268.882,432.24893)"
       clip-path="url(#clipPath64)" />
    <path
       id="path65"
       d="M 0,0 C -0.015,0.305 0.025,0.578 0.118,0.808 0.211,1.036 0.343,1.222 0.522,1.379 0.703,1.535 0.934,1.661 1.206,1.75 1.489,1.843 1.812,1.899 2.169,1.915 2.245,1.918 2.32,1.92 2.392,1.92 2.737,1.92 3.047,1.879 3.316,1.799 3.634,1.704 3.904,1.562 4.12,1.377 4.332,1.195 4.497,0.964 4.61,0.692 4.727,0.41 4.795,0.091 4.811,-0.259 4.817,-0.384 4.817,-0.514 4.811,-0.648 4.808,-0.712 4.803,-0.774 4.797,-0.836 L 0.151,-1.052 C 0.13,-0.98 0.108,-0.893 0.086,-0.794 0.044,-0.603 0.015,-0.337 0,0 m -0.434,-3.192 c 0.098,0.033 0.221,0.066 0.368,0.099 0.152,0.033 0.341,0.064 0.565,0.091 0.23,0.029 0.505,0.057 0.823,0.084 0.319,0.027 0.693,0.052 1.121,0.071 l 4.963,0.231 c 0.433,0.02 0.809,0.031 1.127,0.033 0.318,0.002 0.592,-0.002 0.823,-0.007 0.225,-0.007 0.414,-0.02 0.566,-0.039 0.149,-0.02 0.273,-0.041 0.375,-0.065 l 0.063,-0.007 0.292,0.01 -0.097,2.088 -0.042,0.25 -0.252,-0.009 -0.072,-0.013 C 10.09,-0.408 9.968,-0.442 9.821,-0.474 9.672,-0.508 9.486,-0.538 9.262,-0.565 9.032,-0.594 8.758,-0.622 8.439,-0.648 8.12,-0.677 7.746,-0.7 7.318,-0.72 L 5.896,-0.786 c 0.003,0.055 0.005,0.111 0.007,0.166 0.003,0.152 0.001,0.302 -0.005,0.449 -0.006,0.128 -0.016,0.253 -0.03,0.375 -0.007,0.07 -0.016,0.14 -0.024,0.21 L 9.408,3.2 c 0.143,0.112 0.288,0.21 0.435,0.296 0.171,0.1 0.262,0.13 0.302,0.138 L 10.357,3.678 10.245,6.098 10.202,6.356 9.766,6.326 9.716,6.157 C 9.69,6.074 9.653,5.99 9.606,5.911 9.553,5.823 9.485,5.731 9.402,5.634 9.313,5.532 9.207,5.425 9.083,5.311 8.955,5.195 8.804,5.068 8.627,4.932 L 5.228,2.265 C 5.105,2.47 4.965,2.658 4.811,2.829 4.59,3.075 4.334,3.287 4.05,3.459 3.767,3.631 3.452,3.76 3.112,3.845 2.771,3.931 2.401,3.963 2.014,3.946 1.512,3.924 1.058,3.809 0.665,3.604 0.274,3.401 -0.058,3.122 -0.321,2.776 -0.578,2.436 -0.771,2.035 -0.893,1.582 -1.012,1.138 -1.06,0.653 -1.037,0.141 c 0.025,-0.531 0.07,-0.976 0.136,-1.323 0.062,-0.323 0.098,-0.58 0.106,-0.766 0.006,-0.125 0.01,-0.245 0.013,-0.364 0.003,-0.111 0.002,-0.213 -0.004,-0.306 l -0.015,-0.322 0.017,-0.274 0.277,0.009 z"
       style="fill:#1d1d1b;fill-opacity:1;fill-rule:nonzero;stroke:none"
       transform="matrix(1.3333333,0,0,-1.3333333,266.5328,414.73347)"
       clip-path="url(#clipPath66)" />
    <path
       id="path67"
       d="M 0,0 C 0.238,-0.292 0.533,-0.534 0.878,-0.718 1.224,-0.905 1.622,-1.009 2.064,-1.029 2.475,-1.05 2.859,-1 3.207,-0.888 3.549,-0.779 3.876,-0.629 4.178,-0.44 4.475,-0.253 4.76,-0.038 5.024,0.2 5.282,0.435 5.533,0.675 5.779,0.922 6.021,1.165 6.26,1.401 6.499,1.632 6.728,1.853 6.966,2.052 7.206,2.224 7.441,2.39 7.69,2.524 7.944,2.62 8.188,2.713 8.456,2.749 8.738,2.74 8.932,2.731 9.111,2.689 9.271,2.616 9.425,2.546 9.559,2.446 9.669,2.32 9.78,2.192 9.866,2.038 9.924,1.862 9.984,1.684 10.009,1.479 9.998,1.252 9.987,1.002 9.933,0.772 9.839,0.569 9.741,0.361 9.614,0.176 9.462,0.02 9.308,-0.139 9.13,-0.273 8.933,-0.376 8.735,-0.481 8.526,-0.556 8.311,-0.595 l -0.198,-0.037 -0.029,-0.622 2.056,-0.307 0.091,0.123 c 0.086,0.115 0.182,0.263 0.287,0.444 0.104,0.18 0.204,0.387 0.297,0.615 0.093,0.228 0.174,0.481 0.242,0.749 0.069,0.277 0.11,0.571 0.124,0.875 0.024,0.551 -0.045,1.04 -0.206,1.456 -0.16,0.414 -0.382,0.764 -0.662,1.041 C 10.037,4.014 9.715,4.225 9.355,4.366 9.001,4.506 8.642,4.584 8.285,4.599 7.802,4.62 7.34,4.527 6.911,4.321 6.505,4.126 6.106,3.872 5.725,3.564 5.356,3.265 4.993,2.936 4.646,2.584 4.313,2.245 3.975,1.925 3.639,1.633 3.316,1.35 2.987,1.115 2.661,0.933 2.362,0.767 2.051,0.69 1.734,0.702 1.536,0.711 1.356,0.748 1.198,0.812 1.044,0.873 0.918,0.957 0.81,1.067 0.706,1.175 0.625,1.312 0.57,1.471 0.513,1.636 0.488,1.83 0.499,2.045 0.509,2.291 0.556,2.5 0.636,2.67 0.718,2.845 0.819,2.994 0.935,3.113 1.053,3.234 1.178,3.33 1.306,3.4 1.441,3.473 1.561,3.526 1.662,3.556 L 1.836,3.608 1.861,4.201 0.02,4.353 -0.207,3.89 C -0.271,3.76 -0.337,3.605 -0.404,3.428 -0.471,3.251 -0.531,3.052 -0.584,2.829 -0.637,2.603 -0.671,2.352 -0.683,2.082 -0.699,1.707 -0.648,1.336 -0.532,0.977 -0.415,0.619 -0.236,0.289 0,0"
       style="fill:#1d1d1b;fill-opacity:1;fill-rule:nonzero;stroke:none"
       transform="matrix(1.3333333,0,0,-1.3333333,265.88293,402.22987)"
       clip-path="url(#clipPath68)" />
    <path
       id="path69"
       d="M 0,0 0.034,0.006 C 0.136,0.023 0.26,0.034 0.407,0.042 0.562,0.048 0.754,0.049 0.984,0.043 1.218,0.037 1.493,0.02 1.81,-0.006 2.13,-0.032 2.503,-0.069 2.929,-0.118 L 7.866,-0.68 c 0.426,-0.049 0.798,-0.095 1.116,-0.142 0.314,-0.046 0.585,-0.092 0.812,-0.139 0.223,-0.043 0.409,-0.088 0.558,-0.129 0.142,-0.039 0.26,-0.079 0.355,-0.118 l 0.353,-0.047 0.235,2.063 -0.002,0.259 -0.291,0.03 -0.033,-0.006 C 10.866,1.074 10.74,1.06 10.592,1.051 10.44,1.043 10.25,1.041 10.024,1.05 9.792,1.058 9.518,1.075 9.198,1.099 8.879,1.122 8.506,1.158 8.08,1.207 L 3.144,1.768 C 2.719,1.816 2.347,1.865 2.03,1.915 1.714,1.963 1.44,2.01 1.211,2.052 0.988,2.095 0.802,2.138 0.655,2.182 0.512,2.224 0.392,2.265 0.296,2.305 L -0.057,2.352 -0.292,0.289 -0.291,0.03 Z"
       style="fill:#1d1d1b;fill-opacity:1;fill-rule:nonzero;stroke:none"
       transform="matrix(1.3333333,0,0,-1.3333333,266.328,390.47773)"
       clip-path="url(#clipPath70)" />
    <path
       id="path71"
       d="M 0,0 C -0.026,0.323 -0.038,0.692 -0.034,1.092 -0.026,1.445 -0.002,1.86 0.04,2.338 0.075,2.742 0.137,3.189 0.225,3.669 L 7.123,2.303 C 7.544,2.22 7.911,2.142 8.224,2.07 8.534,1.998 8.799,1.93 9.02,1.867 9.239,1.803 9.421,1.745 9.565,1.69 9.705,1.638 9.821,1.589 9.913,1.543 l 0.345,-0.08 0.404,2.04 0.02,0.256 -0.284,0.058 -0.036,-0.003 C 10.257,3.805 10.131,3.806 9.981,3.805 9.828,3.808 9.64,3.823 9.416,3.85 9.186,3.877 8.913,3.917 8.598,3.965 8.281,4.016 7.912,4.082 7.492,4.166 L 0.594,5.532 c 0.101,0.48 0.214,0.916 0.337,1.303 0.144,0.458 0.279,0.851 0.405,1.176 0.153,0.383 0.305,0.722 0.45,1.008 L 1.971,9.382 0.075,9.417 0.05,9.185 C 0.044,9.127 0.032,9.04 0.014,8.924 L -0.05,8.522 C -0.074,8.376 -0.101,8.222 -0.13,8.061 L -0.283,7.21 C -0.302,7.1 -0.317,7.022 -0.327,6.972 L -1.174,2.697 C -1.183,2.648 -1.2,2.569 -1.224,2.46 L -1.407,1.615 C -1.441,1.455 -1.475,1.303 -1.521,1.11 L -1.603,0.762 C -1.631,0.648 -1.653,0.563 -1.669,0.507 L -1.732,0.284 0.034,-0.408 Z"
       style="fill:#1d1d1b;fill-opacity:1;fill-rule:nonzero;stroke:none"
       transform="matrix(1.3333333,0,0,-1.3333333,268.9824,383.06453)"
       clip-path="url(#clipPath72)" />
    <path
       id="path73"
       d="M 0,0 4.306,0.475 C 4.273,0.364 4.238,0.249 4.201,0.128 L 3.681,-1.564 C 3.59,-1.859 3.5,-2.148 3.41,-2.429 L 3.279,-2.845 Z m 5.95,-7.166 c 0.223,-0.236 0.313,-0.364 0.349,-0.43 l 0.078,-0.1 0.34,-0.107 0.548,1.727 0.048,0.253 -0.322,0.106 -0.073,-0.021 C 6.905,-5.737 6.875,-5.733 6.816,-5.715 6.629,-5.656 6.452,-5.559 6.29,-5.429 6.104,-5.28 5.933,-5.141 5.783,-5.017 l -1.534,1.339 c 0.071,0.246 0.152,0.514 0.245,0.805 L 5.308,-0.3 C 5.425,0.068 5.526,0.374 5.611,0.621 L 7.706,0.856 C 7.998,0.883 8.237,0.891 8.414,0.876 8.593,0.861 8.748,0.832 8.878,0.791 8.909,0.78 8.944,0.767 9.025,0.731 L 9.38,0.6 10.09,2.836 10.137,3.09 9.804,3.193 9.719,3.157 C 9.687,3.144 9.615,3.124 9.505,3.094 9.38,3.062 9.229,3.026 9.052,2.99 8.872,2.953 8.67,2.915 8.445,2.879 8.222,2.842 7.994,2.811 7.76,2.786 L -2.547,1.634 -2.831,0.737 5.22,-6.473 c 0.299,-0.262 0.544,-0.495 0.73,-0.693"
       style="fill:#1d1d1b;fill-opacity:1;fill-rule:nonzero;stroke:none"
       transform="matrix(1.3333333,0,0,-1.3333333,275.23147,362.66067)"
       clip-path="url(#clipPath74)" />
    <path
       id="path75"
       d="m 0,0 c 0.253,-0.302 0.585,-0.547 0.986,-0.729 0.376,-0.169 0.751,-0.268 1.115,-0.294 0.359,-0.026 0.718,-0.007 1.067,0.056 0.338,0.061 0.683,0.156 1.024,0.281 0.326,0.122 0.649,0.251 0.969,0.39 0.314,0.135 0.624,0.266 0.931,0.392 0.294,0.12 0.59,0.216 0.877,0.288 C 7.247,0.452 7.526,0.474 7.8,0.478 8.062,0.472 8.325,0.41 8.583,0.294 8.763,0.212 8.91,0.11 9.031,-0.017 9.149,-0.142 9.237,-0.285 9.291,-0.442 9.347,-0.603 9.369,-0.773 9.358,-0.961 9.347,-1.149 9.294,-1.349 9.2,-1.557 9.098,-1.784 8.963,-1.976 8.799,-2.131 8.631,-2.288 8.45,-2.411 8.246,-2.501 8.044,-2.591 7.829,-2.649 7.607,-2.672 7.385,-2.698 7.163,-2.687 6.949,-2.645 L 6.75,-2.606 6.494,-3.174 8.289,-4.221 8.419,-4.14 c 0.122,0.075 0.266,0.177 0.431,0.306 0.164,0.128 0.333,0.284 0.504,0.46 0.172,0.179 0.341,0.383 0.503,0.607 0.166,0.23 0.314,0.489 0.439,0.766 0.227,0.502 0.345,0.982 0.35,1.428 0.005,0.445 -0.073,0.853 -0.229,1.212 C 10.261,0.996 10.04,1.311 9.759,1.575 9.482,1.837 9.176,2.042 8.853,2.188 8.413,2.388 7.949,2.475 7.473,2.439 7.019,2.409 6.554,2.32 6.091,2.177 5.636,2.036 5.176,1.864 4.725,1.667 4.283,1.473 3.85,1.302 3.437,1.158 3.031,1.016 2.639,0.919 2.269,0.871 1.924,0.828 1.615,0.868 1.323,1.002 1.142,1.083 0.988,1.183 0.865,1.301 0.747,1.413 0.658,1.542 0.6,1.682 0.543,1.821 0.518,1.978 0.527,2.147 c 0.008,0.175 0.058,0.363 0.147,0.56 0.1,0.223 0.221,0.401 0.36,0.529 0.141,0.131 0.29,0.233 0.441,0.3 0.155,0.068 0.307,0.111 0.451,0.128 0.151,0.02 0.282,0.022 0.388,0.013 L 2.495,3.66 2.74,4.203 1.241,4.948 1.067,5.009 0.704,4.682 C 0.595,4.584 0.477,4.466 0.349,4.327 0.221,4.187 0.092,4.023 -0.041,3.835 -0.175,3.644 -0.299,3.423 -0.409,3.179 -0.564,2.837 -0.654,2.474 -0.679,2.097 -0.704,1.722 -0.66,1.349 -0.548,0.991 -0.436,0.632 -0.251,0.298 0,0"
       style="fill:#1d1d1b;fill-opacity:1;fill-rule:nonzero;stroke:none"
       transform="matrix(1.3333333,0,0,-1.3333333,277.8208,350.7172)"
       clip-path="url(#clipPath76)" />
    <path
       id="path77"
       d="M 0,0 C 0.19,-0.348 0.467,-0.654 0.822,-0.909 1.155,-1.15 1.504,-1.321 1.857,-1.418 2.2,-1.514 2.556,-1.567 2.914,-1.575 c 0.349,-0.01 0.706,0.017 1.058,0.072 0.344,0.054 0.687,0.117 1.028,0.189 0.334,0.072 0.664,0.138 0.99,0.2 0.315,0.06 0.624,0.095 0.917,0.108 C 7.192,-1 7.472,-1.019 7.741,-1.08 7.995,-1.136 8.241,-1.249 8.471,-1.413 8.628,-1.527 8.756,-1.661 8.848,-1.809 8.94,-1.955 8.997,-2.111 9.019,-2.275 9.042,-2.445 9.03,-2.616 8.982,-2.798 8.934,-2.979 8.842,-3.166 8.709,-3.351 8.563,-3.552 8.393,-3.715 8.201,-3.833 8.008,-3.953 7.801,-4.039 7.585,-4.086 7.371,-4.134 7.149,-4.149 6.926,-4.128 6.702,-4.107 6.486,-4.054 6.286,-3.97 l -0.187,0.078 -0.364,-0.506 1.552,-1.383 0.144,0.053 c 0.134,0.05 0.296,0.12 0.482,0.215 0.187,0.094 0.384,0.212 0.587,0.351 0.206,0.143 0.412,0.31 0.612,0.495 0.207,0.192 0.404,0.415 0.583,0.664 0.322,0.448 0.533,0.895 0.626,1.331 0.093,0.435 0.098,0.851 0.016,1.231 -0.082,0.382 -0.236,0.735 -0.459,1.049 C 9.66,-0.083 9.402,0.179 9.111,0.389 8.718,0.672 8.279,0.847 7.808,0.909 7.36,0.97 6.887,0.974 6.402,0.926 5.932,0.879 5.447,0.802 4.961,0.697 4.49,0.595 4.032,0.513 3.599,0.454 3.172,0.395 2.768,0.376 2.397,0.404 2.051,0.428 1.757,0.531 1.495,0.72 1.335,0.835 1.204,0.965 1.106,1.104 1.013,1.237 0.952,1.381 0.923,1.53 0.894,1.678 0.901,1.836 0.943,2 0.985,2.169 1.071,2.344 1.198,2.52 1.341,2.719 1.494,2.868 1.655,2.966 1.821,3.068 1.986,3.138 2.147,3.173 2.312,3.209 2.47,3.224 2.615,3.209 2.769,3.197 2.898,3.175 2.998,3.145 L 3.172,3.093 3.519,3.576 2.061,4.712 1.619,4.45 C 1.493,4.376 1.353,4.283 1.201,4.171 1.048,4.06 0.888,3.926 0.721,3.768 0.552,3.607 0.386,3.415 0.229,3.197 0.011,2.894 -0.15,2.555 -0.25,2.192 -0.349,1.828 -0.379,1.454 -0.34,1.081 -0.301,0.706 -0.187,0.342 0,0"
       style="fill:#1d1d1b;fill-opacity:1;fill-rule:nonzero;stroke:none"
       transform="matrix(1.3333333,0,0,-1.3333333,288.4136,330.86547)"
       clip-path="url(#clipPath78)" />
    <path
       id="path79"
       d="M 0,0 C 0.157,0.287 0.351,0.6 0.574,0.931 0.774,1.219 1.023,1.553 1.321,1.929 1.576,2.252 1.874,2.591 2.21,2.94 L 7.213,-2 c 0.306,-0.303 0.569,-0.569 0.791,-0.803 0.219,-0.23 0.403,-0.433 0.553,-0.61 0.147,-0.172 0.267,-0.321 0.358,-0.446 0.088,-0.119 0.156,-0.223 0.207,-0.313 l 0.247,-0.255 1.46,1.477 0.154,0.201 -0.175,0.179 -0.061,0.045 c -0.091,0.05 -0.198,0.117 -0.321,0.202 C 10.3,-2.236 10.151,-2.119 9.98,-1.974 9.803,-1.823 9.597,-1.641 9.36,-1.426 9.123,-1.21 8.853,-0.951 8.547,-0.65 L 3.544,4.29 C 3.889,4.63 4.223,4.933 4.542,5.192 4.914,5.495 5.244,5.748 5.528,5.95 5.859,6.18 6.172,6.379 6.46,6.543 L 6.814,6.744 5.252,7.817 5.104,7.64 C 5.065,7.594 5.007,7.528 4.928,7.441 L 4.653,7.141 C 4.553,7.032 4.446,6.918 4.333,6.8 L 3.735,6.173 C 3.66,6.093 3.604,6.035 3.569,6 L 0.507,2.898 -0.284,2.125 C -0.4,2.01 -0.513,1.901 -0.622,1.798 L -0.918,1.52 C -1.003,1.441 -1.068,1.381 -1.113,1.343 l -0.178,-0.15 1.095,-1.55 z"
       style="fill:#1d1d1b;fill-opacity:1;fill-rule:nonzero;stroke:none"
       transform="matrix(1.3333333,0,0,-1.3333333,295.74467,321.38467)"
       clip-path="url(#clipPath80)" />
    <path
       id="path81"
       d="m 0,0 c 0.033,-0.01 0.101,-0.041 0.202,-0.086 0.118,-0.055 0.257,-0.126 0.418,-0.211 0.165,-0.089 0.345,-0.188 0.54,-0.3 0.194,-0.112 0.39,-0.232 0.586,-0.362 l 8.692,-5.67 0.789,0.511 L 9.594,4.571 C 9.533,4.955 9.493,5.291 9.473,5.569 9.45,5.893 9.464,6.049 9.481,6.125 L 9.486,6.254 9.288,6.554 7.763,5.566 7.567,5.403 7.764,5.11 7.82,5.08 C 7.829,5.07 7.85,5.048 7.879,5.002 7.986,4.837 8.062,4.65 8.105,4.448 8.153,4.215 8.196,3.999 8.234,3.806 L 9.507,-3.743 3.015,0.498 C 2.771,0.661 2.583,0.808 2.455,0.932 2.329,1.055 2.227,1.176 2.153,1.289 2.135,1.318 2.116,1.351 2.078,1.429 L 1.883,1.758 -0.083,0.483 -0.283,0.318 -0.089,0.026 Z"
       style="fill:#1d1d1b;fill-opacity:1;fill-rule:nonzero;stroke:none"
       transform="matrix(1.3333333,0,0,-1.3333333,306.098,308.88093)"
       clip-path="url(#clipPath82)" />
    <path
       id="path83"
       d="M 0,0 C 0.042,0.016 0.085,0.034 0.132,0.052 0.27,0.105 0.417,0.159 0.576,0.213 L 1.062,0.381 C 1.223,0.436 1.368,0.481 1.495,0.52 2.129,0.706 2.724,0.773 3.266,0.721 3.798,0.67 4.286,0.504 4.717,0.23 5.152,-0.048 5.54,-0.441 5.871,-0.939 6.207,-1.445 6.485,-2.067 6.696,-2.785 6.887,-3.434 6.993,-4.022 7.011,-4.531 7.029,-5.035 6.982,-5.488 6.871,-5.876 6.762,-6.261 6.599,-6.6 6.388,-6.883 6.173,-7.172 5.924,-7.424 5.648,-7.634 5.37,-7.845 5.062,-8.025 4.737,-8.169 4.403,-8.315 4.067,-8.439 3.737,-8.536 3.657,-8.56 3.556,-8.586 3.438,-8.617 L 3.064,-8.707 C 2.939,-8.736 2.819,-8.761 2.704,-8.782 2.679,-8.787 2.656,-8.791 2.633,-8.795 2.543,-8.541 2.441,-8.242 2.327,-7.896 2.181,-7.453 2.032,-6.988 1.881,-6.504 1.731,-6.018 1.585,-5.545 1.444,-5.083 1.303,-4.622 1.184,-4.228 1.088,-3.9 1.042,-3.746 0.991,-3.567 0.935,-3.364 l -0.372,1.318 c -0.065,0.229 -0.127,0.454 -0.187,0.674 z m -2.312,0.182 c 0.055,-0.088 0.117,-0.202 0.185,-0.34 0.07,-0.143 0.147,-0.322 0.23,-0.535 0.085,-0.218 0.177,-0.48 0.278,-0.787 0.102,-0.31 0.213,-0.671 0.334,-1.083 L 0.117,-7.329 C 0.239,-7.741 0.339,-8.102 0.42,-8.412 0.501,-8.72 0.564,-8.987 0.609,-9.213 0.653,-9.435 0.685,-9.622 0.702,-9.776 0.718,-9.925 0.727,-10.05 0.728,-10.155 l 0.093,-0.342 0.242,0.07 c 0.134,0.04 0.323,0.09 0.602,0.156 l 1.609,0.388 c 0.284,0.07 0.526,0.134 0.723,0.193 0.558,0.164 1.092,0.37 1.591,0.613 0.501,0.247 0.963,0.541 1.372,0.875 0.411,0.336 0.771,0.721 1.069,1.142 0.302,0.426 0.532,0.904 0.686,1.424 C 8.868,-5.121 8.941,-4.55 8.93,-3.94 8.919,-3.335 8.809,-2.673 8.604,-1.976 8.316,-0.999 7.921,-0.205 7.427,0.385 6.928,0.979 6.354,1.418 5.72,1.69 5.088,1.961 4.402,2.107 3.676,2.08 2.968,2.068 2.239,1.953 1.511,1.739 1.244,1.662 0.962,1.572 0.662,1.473 L -0.198,1.189 C -0.475,1.096 -0.72,1.013 -0.936,0.94 -1.145,0.867 -1.295,0.819 -1.383,0.793 L -1.591,0.735 C -1.677,0.712 -1.761,0.692 -1.847,0.672 L -2.418,0.5 -2.34,0.243 Z"
       style="fill:#1d1d1b;fill-opacity:1;fill-rule:nonzero;stroke:none"
       transform="matrix(1.3333333,0,0,-1.3333333,327.06493,298.45307)"
       clip-path="url(#clipPath84)" />
    <path
       id="path85"
       d="m 0,0 c 0.033,-0.097 0.064,-0.218 0.094,-0.362 0.031,-0.153 0.061,-0.342 0.091,-0.57 0.031,-0.232 0.058,-0.506 0.082,-0.823 0.025,-0.32 0.046,-0.694 0.065,-1.124 L 0.554,-7.841 C 0.573,-8.271 0.585,-8.645 0.589,-8.967 0.593,-9.284 0.59,-9.558 0.581,-9.789 0.571,-10.017 0.557,-10.207 0.539,-10.361 0.523,-10.507 0.503,-10.63 0.479,-10.73 l -0.007,-0.066 0.014,-0.29 2.075,0.092 0.251,0.042 -0.008,0.251 -0.014,0.075 c -0.033,0.097 -0.066,0.219 -0.098,0.364 -0.033,0.151 -0.064,0.337 -0.091,0.56 C 2.573,-9.471 2.546,-9.197 2.519,-8.878 2.493,-8.56 2.47,-8.185 2.451,-7.757 L 2.229,-2.794 C 2.21,-2.365 2.2,-1.991 2.198,-1.671 c -0.002,0.32 10e-4,0.597 0.009,0.832 0.006,0.227 0.02,0.416 0.04,0.568 0.019,0.149 0.041,0.274 0.065,0.375 L 2.319,0.168 2.309,0.46 0.229,0.366 -0.026,0.325 -0.013,0.068 Z"
       style="fill:#1d1d1b;fill-opacity:1;fill-rule:nonzero;stroke:none"
       transform="matrix(1.3333333,0,0,-1.3333333,343.15653,294.08573)"
       clip-path="url(#clipPath86)" />
    <path
       id="path87"
       d="M 0,0 C -0.028,0.671 0.039,1.384 0.2,2.12 0.346,2.78 0.565,3.356 0.851,3.831 1.135,4.3 1.472,4.68 1.855,4.96 2.234,5.234 2.66,5.419 3.122,5.509 3.326,5.548 3.537,5.568 3.752,5.568 4.026,5.568 4.309,5.535 4.597,5.472 5.244,5.331 5.788,5.078 6.214,4.721 6.642,4.364 6.972,3.922 7.198,3.405 7.427,2.879 7.559,2.279 7.591,1.622 7.622,0.954 7.556,0.241 7.395,-0.498 7.25,-1.158 7.03,-1.736 6.743,-2.213 6.458,-2.686 6.119,-3.069 5.735,-3.352 5.353,-3.634 4.926,-3.823 4.466,-3.914 4.001,-4.006 3.504,-3.994 2.991,-3.88 2.344,-3.738 1.8,-3.483 1.373,-3.123 0.943,-2.759 0.612,-2.311 0.387,-1.792 0.158,-1.265 0.029,-0.662 0,0 m -1.209,-2.51 c 0.422,-0.625 0.976,-1.163 1.647,-1.601 0.667,-0.435 1.44,-0.751 2.296,-0.939 0.439,-0.096 0.871,-0.145 1.288,-0.145 0.127,0 0.252,0.004 0.375,0.014 0.529,0.039 1.036,0.145 1.507,0.317 0.471,0.173 0.913,0.407 1.312,0.696 0.4,0.289 0.761,0.626 1.074,1.002 0.313,0.377 0.582,0.795 0.799,1.244 0.218,0.451 0.382,0.926 0.489,1.413 0.188,0.859 0.211,1.69 0.068,2.47 C 9.502,2.741 9.216,3.456 8.794,4.083 8.373,4.709 7.82,5.252 7.15,5.694 6.484,6.135 5.711,6.453 4.854,6.642 4.28,6.767 3.719,6.811 3.188,6.774 2.656,6.735 2.147,6.627 1.675,6.453 1.203,6.278 0.762,6.042 0.365,5.752 -0.034,5.461 -0.394,5.12 -0.705,4.742 -1.018,4.363 -1.287,3.943 -1.505,3.492 -1.723,3.042 -1.888,2.566 -1.994,2.078 -2.185,1.213 -2.208,0.381 -2.064,-0.396 -1.92,-1.173 -1.632,-1.885 -1.209,-2.51"
       style="fill:#1d1d1b;fill-opacity:1;fill-rule:nonzero;stroke:none"
       transform="matrix(1.3333333,0,0,-1.3333333,353.94867,303.47293)"
       clip-path="url(#clipPath88)" />
    <path
       id="path89"
       d="M 0,0 2.295,4.046 C 2.367,4.025 2.452,3.998 2.548,3.962 2.73,3.897 2.971,3.78 3.265,3.613 3.532,3.462 3.741,3.283 3.886,3.082 4.027,2.885 4.118,2.667 4.153,2.436 4.189,2.199 4.172,1.937 4.103,1.66 4.031,1.371 3.906,1.067 3.729,0.757 3.513,0.375 3.274,0.069 3.02,-0.152 2.77,-0.37 2.505,-0.523 2.234,-0.606 1.965,-0.689 1.683,-0.705 1.393,-0.656 1.093,-0.605 0.786,-0.492 0.481,-0.32 0.372,-0.257 0.263,-0.189 0.152,-0.112 0.1,-0.075 0.049,-0.039 0,0 m -2.637,-5.094 0.126,0.22 0.027,0.067 c 0.025,0.102 0.062,0.222 0.112,0.363 0.051,0.145 0.125,0.318 0.22,0.522 0.099,0.21 0.222,0.456 0.369,0.741 0.147,0.285 0.326,0.614 0.538,0.987 l 0.703,1.237 c 0.045,-0.032 0.091,-0.064 0.137,-0.094 0.126,-0.084 0.253,-0.162 0.383,-0.235 C 0.089,-1.349 0.199,-1.407 0.31,-1.461 0.373,-1.492 0.437,-1.522 0.5,-1.552 L 0.956,-6.053 C 0.975,-6.234 0.981,-6.409 0.975,-6.578 0.969,-6.778 0.945,-6.87 0.931,-6.907 l -0.076,-0.204 2.107,-1.194 0.236,-0.099 0.217,0.378 -0.12,0.137 c -0.058,0.066 -0.108,0.139 -0.151,0.225 -0.046,0.09 -0.087,0.196 -0.124,0.317 -0.039,0.131 -0.074,0.278 -0.104,0.443 -0.03,0.17 -0.057,0.366 -0.078,0.589 l -0.443,4.297 c 0.237,-0.013 0.471,0.014 0.699,0.052 0.329,0.057 0.644,0.161 0.938,0.308 0.294,0.147 0.572,0.344 0.827,0.588 0.253,0.241 0.479,0.535 0.672,0.875 C 5.779,0.242 5.924,0.688 5.96,1.127 5.996,1.569 5.938,1.998 5.785,2.403 5.635,2.803 5.398,3.181 5.081,3.525 4.769,3.862 4.385,4.161 3.939,4.414 3.465,4.683 3.074,4.876 2.746,5.004 2.436,5.126 2.199,5.233 2.041,5.324 1.932,5.385 1.827,5.446 1.728,5.505 1.632,5.563 1.546,5.618 1.47,5.673 L 1.206,5.858 0.959,5.993 0.822,5.746 0.797,5.682 C 0.772,5.58 0.734,5.459 0.683,5.317 0.631,5.17 0.557,4.994 0.461,4.792 0.362,4.581 0.239,4.334 0.092,4.05 -0.055,3.765 -0.235,3.436 -0.446,3.064 l -2.45,-4.322 c -0.215,-0.377 -0.406,-0.701 -0.573,-0.97 -0.167,-0.27 -0.316,-0.501 -0.446,-0.693 -0.125,-0.188 -0.236,-0.339 -0.335,-0.458 -0.095,-0.115 -0.179,-0.21 -0.253,-0.282 l -0.183,-0.305 1.813,-1.029 z"
       style="fill:#1d1d1b;fill-opacity:1;fill-rule:nonzero;stroke:none"
       transform="matrix(1.3333333,0,0,-1.3333333,373.41853,307.5636)"
       clip-path="url(#clipPath90)" />
    <path
       id="path91"
       d="M 0,0 C 0.363,0.158 0.678,0.283 0.935,0.37 1.242,0.473 1.398,0.499 1.474,0.503 L 1.601,0.529 1.843,0.796 0.501,2.024 0.294,2.171 0.061,1.908 0.045,1.847 C 0.036,1.832 0.018,1.806 -0.015,1.768 -0.149,1.623 -0.31,1.503 -0.495,1.41 -0.709,1.304 -0.907,1.209 -1.084,1.123 l -6.982,-3.138 2.463,7.353 c 0.096,0.275 0.19,0.494 0.279,0.651 0.089,0.155 0.18,0.284 0.275,0.387 0.022,0.024 0.048,0.049 0.113,0.106 L -4.668,6.749 -6.398,8.333 -6.607,8.482 -6.841,8.226 -6.845,8.135 C -6.847,8.099 -6.859,8.024 -6.879,7.909 -6.901,7.784 -6.934,7.632 -6.976,7.454 -7.02,7.271 -7.072,7.072 -7.131,6.855 -7.19,6.64 -7.257,6.42 -7.331,6.197 l -3.293,-9.841 0.694,-0.635 z"
       style="fill:#1d1d1b;fill-opacity:1;fill-rule:nonzero;stroke:none"
       transform="matrix(1.3333333,0,0,-1.3333333,396.33173,318.5612)"
       clip-path="url(#clipPath92)" />
    <path
       id="path93"
       d="M 0,0 C -0.464,-0.227 -0.918,-0.447 -1.363,-0.66 L -3.735,-1.794 C -3.94,-1.889 -4.121,-1.951 -4.268,-1.977 -4.421,-2.005 -4.54,-2.027 -4.628,-2.02 l -0.106,-0.016 -0.276,-0.188 1.177,-1.728 0.218,0.22 c 0.056,0.056 0.122,0.118 0.192,0.183 0.068,0.059 0.153,0.128 0.254,0.208 0.099,0.08 0.217,0.165 0.353,0.259 0.11,0.074 0.286,0.18 0.529,0.315 0.25,0.14 0.542,0.297 0.876,0.473 0.334,0.176 0.696,0.363 1.087,0.561 l 1.175,0.598 c 0.721,0.366 1.495,0.751 2.325,1.157 l -4.164,-7.957 0.39,-0.742 8.918,0.982 -4.901,-4.386 c -0.058,-0.051 -0.112,-0.097 -0.163,-0.138 -0.049,-0.038 -0.098,-0.075 -0.149,-0.109 -0.133,-0.091 -0.252,-0.16 -0.357,-0.207 -0.138,-0.061 -0.191,-0.073 -0.207,-0.077 l -0.337,-0.201 1.227,-1.799 0.165,-0.188 0.27,0.173 0.032,0.067 c 0.025,0.054 0.062,0.117 0.11,0.189 0.053,0.078 0.124,0.17 0.214,0.278 0.092,0.111 0.209,0.238 0.35,0.38 0.141,0.145 0.317,0.31 0.53,0.497 l 6.951,6.29 -0.62,0.909 L 1.661,-7.1 6.222,1.631 5.462,2.747 4.695,2.341 C 4.444,2.211 4.147,2.059 3.804,1.888 3.461,1.715 3.081,1.524 2.664,1.318 L 1.368,0.674 C 0.919,0.452 0.464,0.227 0,0"
       style="fill:#1d1d1b;fill-opacity:1;fill-rule:nonzero;stroke:none"
       transform="matrix(1.3333333,0,0,-1.3333333,395.87173,326.30547)"
       clip-path="url(#clipPath94)" />
    <path
       id="path95"
       d="m 0,0 -3.159,-2.965 c -0.04,0.108 -0.081,0.222 -0.125,0.34 l -0.902,2.519 -0.145,0.412 z m -9.06,2.158 c -0.321,0.056 -0.471,0.105 -0.541,0.136 l -0.117,0.03 -0.342,-0.11 0.602,-1.716 0.113,-0.232 0.322,0.112 0.046,0.058 c 0.01,0.007 0.037,0.021 0.095,0.041 0.187,0.065 0.385,0.085 0.592,0.089 0.238,-0.007 0.458,-0.017 0.653,-0.026 l 2.031,-0.15 c 0.09,-0.239 0.187,-0.503 0.288,-0.791 l 0.892,-2.546 c 0.128,-0.364 0.231,-0.67 0.311,-0.919 l -1.534,-1.445 c -0.218,-0.199 -0.404,-0.348 -0.556,-0.442 -0.15,-0.094 -0.291,-0.164 -0.418,-0.209 -0.033,-0.011 -0.07,-0.022 -0.156,-0.042 l -0.048,0.002 -0.316,-0.11 0.776,-2.214 0.114,-0.23 0.328,0.115 0.048,0.081 c 0.017,0.03 0.063,0.088 0.133,0.179 0.08,0.101 0.18,0.219 0.301,0.356 0.121,0.137 0.26,0.289 0.416,0.452 0.157,0.163 0.321,0.325 0.493,0.486 L 3.018,0.221 2.706,1.11 -8.061,2.043 c -0.391,0.03 -0.727,0.068 -0.999,0.115"
       style="fill:#1d1d1b;fill-opacity:1;fill-rule:nonzero;stroke:none"
       transform="matrix(1.3333333,0,0,-1.3333333,418.0944,358.10333)"
       clip-path="url(#clipPath96)" />
    <path
       id="path97"
       d="M 0,0 C -0.42,-0.087 -0.788,-0.159 -1.105,-0.214 -1.417,-0.269 -1.688,-0.31 -1.919,-0.337 -2.143,-0.364 -2.332,-0.38 -2.486,-0.385 -2.635,-0.387 -2.762,-0.388 -2.865,-0.38 l -0.351,-0.062 0.329,-1.58 0.082,-0.242 0.248,0.051 0.069,0.024 c 0.091,0.048 0.205,0.097 0.343,0.15 0.145,0.055 0.326,0.115 0.543,0.181 0.221,0.066 0.486,0.137 0.796,0.212 0.313,0.075 0.679,0.155 1.099,0.244 l 4.481,0.931 -6.275,-8.961 0.128,-0.618 8.186,1.702 c 0.42,0.088 0.788,0.159 1.104,0.214 0.313,0.055 0.586,0.096 0.817,0.124 0.229,0.027 0.42,0.045 0.576,0.052 0.147,0.007 0.272,0.006 0.374,-10e-4 l 0.35,0.062 -0.329,1.58 L 9.624,-6.074 9.375,-6.126 9.308,-6.149 C 9.215,-6.198 9.099,-6.249 8.961,-6.305 8.818,-6.362 8.637,-6.424 8.418,-6.489 8.194,-6.556 7.927,-6.626 7.619,-6.701 7.307,-6.776 6.94,-6.857 6.52,-6.946 L 1.89,-7.908 8.172,1.054 8.05,1.64 7.968,1.882 7.72,1.832 7.652,1.808 C 7.559,1.759 7.443,1.708 7.306,1.652 7.163,1.596 6.981,1.533 6.762,1.468 6.538,1.401 6.272,1.331 5.963,1.257 5.651,1.181 5.285,1.1 4.864,1.012 Z"
       style="fill:#1d1d1b;fill-opacity:1;fill-rule:nonzero;stroke:none"
       transform="matrix(1.3333333,0,0,-1.3333333,414.56213,371.2324)"
       clip-path="url(#clipPath98)" />
    <path
       id="path99"
       d="m 0,0 c 0.238,0.016 0.471,0.032 0.699,0.045 l 1.42,0.088 C 2.126,0.09 2.134,0.044 2.142,-0.006 2.165,-0.152 2.189,-0.307 2.209,-0.473 L 2.274,-0.985 C 2.295,-1.153 2.31,-1.302 2.321,-1.437 2.374,-2.095 2.32,-2.692 2.158,-3.21 1.999,-3.721 1.737,-4.166 1.381,-4.532 1.021,-4.901 0.557,-5.201 0.002,-5.423 c -0.564,-0.225 -1.229,-0.371 -1.976,-0.431 -0.678,-0.055 -1.275,-0.038 -1.774,0.048 -0.498,0.085 -0.931,0.224 -1.289,0.412 -0.353,0.185 -0.652,0.412 -0.886,0.677 -0.238,0.268 -0.435,0.563 -0.584,0.877 -0.15,0.317 -0.264,0.654 -0.338,1.002 -0.076,0.357 -0.128,0.711 -0.156,1.054 -0.006,0.084 -0.012,0.186 -0.017,0.31 -0.005,0.126 -0.009,0.254 -0.012,0.385 -0.003,0.128 -0.003,0.25 0,0.367 0,0.024 0.001,0.048 0.002,0.072 0.265,0.036 0.58,0.075 0.943,0.116 0.463,0.053 0.947,0.104 1.452,0.152 l 1.481,0.139 c 0.48,0.043 0.89,0.078 1.229,0.106 0.162,0.013 0.347,0.027 0.556,0.041 z M 1.826,2.132 C 1.596,2.093 1.32,2.055 1,2.02 0.676,1.983 0.3,1.948 -0.128,1.914 L -5.08,1.513 C -5.509,1.478 -5.882,1.453 -6.203,1.438 -6.521,1.422 -6.795,1.411 -7.025,1.415 -7.251,1.417 -7.441,1.426 -7.594,1.44 -7.745,1.454 -7.87,1.471 -7.973,1.492 l -0.063,0.004 -0.291,-0.02 0.021,-0.257 c 0.011,-0.138 0.021,-0.335 0.028,-0.586 l 0.025,-0.82 c 0.008,-0.292 0.017,-0.581 0.028,-0.869 0.01,-0.292 0.024,-0.542 0.041,-0.747 0.047,-0.58 0.14,-1.146 0.277,-1.682 0.139,-0.541 0.332,-1.053 0.576,-1.521 0.244,-0.473 0.547,-0.903 0.9,-1.282 0.355,-0.381 0.776,-0.705 1.254,-0.962 0.471,-0.253 1.015,-0.441 1.617,-0.556 0.393,-0.074 0.818,-0.112 1.27,-0.112 0.232,0 0.472,0.011 0.718,0.03 1.015,0.083 1.874,0.309 2.552,0.673 0.683,0.365 1.23,0.838 1.626,1.404 0.395,0.561 0.663,1.209 0.799,1.921 0.132,0.698 0.169,1.435 0.108,2.19 -0.023,0.276 -0.051,0.572 -0.087,0.885 L 3.229,0.857 C 3.201,1.077 3.183,1.233 3.176,1.327 3.172,1.381 3.167,1.452 3.163,1.542 3.157,1.63 3.154,1.716 3.153,1.804 L 3.102,2.401 2.831,2.374 2.768,2.36 C 2.67,2.323 2.546,2.286 2.397,2.248 2.243,2.208 2.053,2.169 1.826,2.132"
       style="fill:#1d1d1b;fill-opacity:1;fill-rule:nonzero;stroke:none"
       transform="matrix(1.3333333,0,0,-1.3333333,424.6292,390.80613)"
       clip-path="url(#clipPath100)" />
    <path
       id="path101"
       d="m 0,0 h -0.258 l -0.068,-0.009 c -0.099,-0.028 -0.221,-0.052 -0.367,-0.073 -0.154,-0.023 -0.344,-0.044 -0.574,-0.06 -0.232,-0.018 -0.509,-0.03 -0.826,-0.037 -0.321,-0.006 -0.696,-0.007 -1.126,-0.002 l -4.967,0.056 c -0.43,0.005 -0.804,0.014 -1.126,0.028 -0.317,0.014 -0.59,0.032 -0.821,0.054 -0.226,0.023 -0.415,0.047 -0.568,0.074 -0.145,0.025 -0.268,0.051 -0.367,0.081 l -0.355,0.011 -0.023,-2.076 0.028,-0.25 0.288,-0.01 0.038,0.011 c 0.099,0.028 0.222,0.053 0.372,0.077 0.151,0.026 0.338,0.045 0.562,0.059 0.232,0.016 0.507,0.028 0.827,0.037 0.32,0.008 0.695,0.009 1.123,0.006 l 4.968,-0.056 c 0.428,-0.005 0.802,-0.015 1.123,-0.032 0.319,-0.017 0.596,-0.035 0.83,-0.055 0.226,-0.02 0.415,-0.043 0.566,-0.072 0.146,-0.027 0.269,-0.056 0.367,-0.086 l 0.358,-0.011 0.023,2.077 z"
       style="fill:#1d1d1b;fill-opacity:1;fill-rule:nonzero;stroke:none"
       transform="matrix(1.3333333,0,0,-1.3333333,429.74267,406.10187)"
       clip-path="url(#clipPath102)" />
    <path
       id="path103"
       d="m 0,0 -0.036,-0.007 c -0.102,-0.018 -0.229,-0.035 -0.376,-0.047 -0.154,-0.012 -0.345,-0.014 -0.574,-0.016 -0.234,0.002 -0.509,0.013 -0.826,0.033 -0.32,0.021 -0.695,0.051 -1.122,0.091 L -7.88,0.523 c -0.427,0.041 -0.801,0.081 -1.119,0.122 -0.315,0.04 -0.587,0.08 -0.813,0.121 -0.223,0.042 -0.408,0.083 -0.556,0.123 -0.144,0.041 -0.265,0.079 -0.362,0.116 l -0.353,0.045 -0.153,-1.607 0.007,-0.255 0.288,-0.03 0.036,0.008 c 0.102,0.018 0.226,0.032 0.374,0.041 0.155,0.012 0.345,0.012 0.572,0.014 0.231,-0.002 0.505,-0.013 0.822,-0.033 0.32,-0.02 0.694,-0.051 1.122,-0.092 l 4.556,-0.431 -8.552,-6.643 -0.087,-0.068 -0.06,-0.63 8.322,-0.787 c 0.428,-0.041 0.801,-0.082 1.119,-0.122 0.316,-0.04 0.588,-0.081 0.819,-0.123 0.226,-0.04 0.413,-0.081 0.564,-0.121 0.143,-0.036 0.263,-0.074 0.359,-0.11 l 0.351,-0.044 0.152,1.607 -0.006,0.255 -0.288,0.029 -0.036,-0.007 c -0.102,-0.018 -0.227,-0.034 -0.378,-0.046 -0.153,-0.013 -0.345,-0.02 -0.571,-0.017 -0.234,0.003 -0.511,0.014 -0.827,0.034 -0.321,0.02 -0.694,0.051 -1.122,0.091 l -4.709,0.447 8.561,6.642 0.087,0.068 0.056,0.596 -0.007,0.254 z"
       style="fill:#1d1d1b;fill-opacity:1;fill-rule:nonzero;stroke:none"
       transform="matrix(1.3333333,0,0,-1.3333333,429.27333,414.80947)"
       clip-path="url(#clipPath104)" />
    <path
       id="path105"
       d="m 0,0 c -0.104,-0.007 -0.23,-0.009 -0.381,-0.006 -0.154,0.004 -0.344,0.02 -0.57,0.047 -0.232,0.027 -0.505,0.069 -0.819,0.123 -0.315,0.054 -0.684,0.125 -1.105,0.211 l -4.866,1.003 c -0.42,0.087 -0.787,0.167 -1.098,0.242 -0.31,0.073 -0.575,0.143 -0.796,0.21 -0.217,0.065 -0.397,0.125 -0.538,0.181 -0.14,0.057 -0.256,0.108 -0.348,0.156 l -0.347,0.081 -0.717,-3.479 c -0.009,-0.049 -0.027,-0.126 -0.052,-0.236 l -0.19,-0.843 c -0.035,-0.159 -0.07,-0.312 -0.105,-0.457 l -0.097,-0.396 c -0.028,-0.114 -0.05,-0.198 -0.067,-0.253 l -0.067,-0.224 1.755,-0.702 -0.023,0.401 c -0.021,0.361 -0.023,0.765 -0.005,1.203 0.011,0.373 0.042,0.814 0.094,1.309 0.042,0.422 0.112,0.878 0.205,1.362 l 4.183,-0.861 c -0.057,-0.25 -0.123,-0.507 -0.198,-0.77 -0.102,-0.355 -0.201,-0.683 -0.299,-0.982 -0.113,-0.349 -0.228,-0.69 -0.342,-1.023 l -0.077,-0.223 1.589,-0.697 0.019,0.369 c 0.013,0.261 0.039,0.562 0.079,0.901 0.034,0.292 0.081,0.647 0.142,1.062 0.049,0.346 0.113,0.724 0.19,1.135 l 3.592,-0.74 -0.047,-0.315 c -0.022,-0.156 -0.046,-0.316 -0.073,-0.482 -0.026,-0.164 -0.051,-0.305 -0.075,-0.422 -0.07,-0.343 -0.147,-0.647 -0.227,-0.904 -0.082,-0.261 -0.157,-0.482 -0.224,-0.66 -0.077,-0.203 -0.152,-0.378 -0.228,-0.527 l -0.104,-0.208 1.499,-0.932 0.006,0.45 c 0.001,0.086 0.018,0.279 0.09,0.716 0.059,0.365 0.138,0.804 0.236,1.315 0.098,0.515 0.208,1.08 0.33,1.696 v 10e-4 c 0.121,0.615 0.246,1.234 0.375,1.856 L 0.32,-0.056 0.035,0.002 Z"
       style="fill:#1d1d1b;fill-opacity:1;fill-rule:nonzero;stroke:none"
       transform="matrix(1.3333333,0,0,-1.3333333,426.9804,433.744)"
       clip-path="url(#clipPath106)" />
    <path
       id="path107"
       d="m 0,0 c -0.104,0.004 -0.229,0.017 -0.376,0.039 -0.153,0.022 -0.34,0.06 -0.563,0.113 -0.227,0.054 -0.493,0.126 -0.798,0.216 -0.308,0.092 -0.665,0.205 -1.073,0.339 l -4.716,1.56 c -0.408,0.135 -0.763,0.258 -1.064,0.367 -0.298,0.11 -0.554,0.211 -0.766,0.302 -0.208,0.089 -0.379,0.17 -0.515,0.243 -0.133,0.072 -0.241,0.136 -0.328,0.195 l -0.332,0.125 -0.508,-1.536 -0.052,-0.255 0.246,-0.078 0.066,-0.011 c 0.103,-0.005 0.227,-0.018 0.374,-0.042 0.152,-0.024 0.339,-0.063 0.561,-0.117 0.225,-0.053 0.489,-0.124 0.794,-0.215 0.308,-0.091 0.666,-0.204 1.073,-0.338 l 4.346,-1.437 -9.92,-4.615 -0.198,-0.6 7.937,-2.625 c 0.408,-0.135 0.762,-0.258 1.064,-0.368 0.298,-0.109 0.555,-0.21 0.769,-0.302 0.212,-0.09 0.386,-0.172 0.522,-0.242 0.132,-0.069 0.241,-0.132 0.327,-0.19 l 0.332,-0.126 0.508,1.537 0.051,0.254 -0.246,0.079 -0.065,0.011 c -0.104,0.005 -0.23,0.017 -0.379,0.04 -0.152,0.022 -0.34,0.06 -0.562,0.113 -0.228,0.053 -0.494,0.126 -0.798,0.215 -0.308,0.092 -0.665,0.205 -1.073,0.34 l -4.49,1.485 9.826,4.565 0.099,0.046 0.189,0.568 0.05,0.248 -0.237,0.083 z"
       style="fill:#1d1d1b;fill-opacity:1;fill-rule:nonzero;stroke:none"
       transform="matrix(1.3333333,0,0,-1.3333333,424.02267,447.23947)"
       clip-path="url(#clipPath108)" />
    <path
       id="path109"
       d="M 0,0 C -0.248,0.308 -0.575,0.56 -0.971,0.747 -1.342,0.924 -1.716,1.03 -2.08,1.062 -2.438,1.098 -2.797,1.084 -3.148,1.027 -3.492,0.973 -3.838,0.885 -4.177,0.767 -4.506,0.652 -4.831,0.529 -5.154,0.397 -5.471,0.267 -5.784,0.142 -6.093,0.023 c -0.296,-0.115 -0.593,-0.205 -0.883,-0.27 -0.277,-0.062 -0.557,-0.085 -0.832,-0.079 -0.26,0.011 -0.522,0.078 -0.778,0.199 -0.179,0.085 -0.324,0.19 -0.443,0.321 -0.116,0.127 -0.2,0.271 -0.252,0.429 -0.052,0.16 -0.071,0.335 -0.056,0.52 0.015,0.189 0.071,0.388 0.168,0.592 0.108,0.225 0.247,0.416 0.413,0.567 0.171,0.153 0.36,0.274 0.561,0.359 0.202,0.085 0.418,0.139 0.641,0.159 0.227,0.02 0.447,0.006 0.658,-0.041 L -6.698,2.735 -6.43,3.3 -8.204,4.381 -8.335,4.303 C -8.459,4.231 -8.605,4.132 -8.773,4.006 -8.942,3.879 -9.114,3.727 -9.286,3.554 -9.46,3.38 -9.633,3.18 -9.8,2.959 -9.971,2.732 -10.124,2.477 -10.255,2.201 c -0.236,-0.498 -0.364,-0.976 -0.377,-1.422 -0.014,-0.445 0.056,-0.854 0.205,-1.216 0.149,-0.36 0.364,-0.679 0.639,-0.948 0.271,-0.264 0.572,-0.477 0.895,-0.631 0.436,-0.208 0.899,-0.293 1.374,-0.278 0.453,0.023 0.919,0.101 1.387,0.235 0.46,0.134 0.923,0.297 1.376,0.485 0.445,0.184 0.881,0.347 1.297,0.483 0.409,0.134 0.804,0.223 1.174,0.264 0.345,0.036 0.653,-0.01 0.943,-0.15 0.178,-0.083 0.33,-0.187 0.452,-0.308 0.115,-0.114 0.201,-0.244 0.257,-0.387 0.055,-0.141 0.076,-0.294 0.064,-0.465 -0.011,-0.173 -0.064,-0.36 -0.158,-0.556 -0.104,-0.221 -0.228,-0.396 -0.369,-0.522 -0.145,-0.13 -0.296,-0.227 -0.448,-0.292 -0.154,-0.065 -0.306,-0.104 -0.453,-0.12 -0.154,-0.014 -0.284,-0.016 -0.387,-0.005 l -0.181,0.021 -0.257,-0.538 1.638,-0.855 0.389,0.336 c 0.111,0.096 0.231,0.212 0.362,0.35 0.13,0.136 0.263,0.297 0.399,0.483 0.138,0.188 0.266,0.406 0.382,0.648 0.16,0.34 0.258,0.702 0.29,1.077 0.033,0.376 -0.005,0.75 -0.109,1.108 C 0.423,-0.64 0.245,-0.303 0,0"
       style="fill:#1d1d1b;fill-opacity:1;fill-rule:nonzero;stroke:none"
       transform="matrix(1.3333333,0,0,-1.3333333,416.07907,464.7428)"
       clip-path="url(#clipPath110)" />
    <path
       id="path111"
       d="M 0,0 C -0.1,0.026 -0.218,0.067 -0.355,0.122 -0.499,0.179 -0.674,0.257 -0.881,0.357 -1.092,0.46 -1.336,0.588 -1.614,0.741 -1.895,0.896 -2.22,1.085 -2.589,1.303 l -4.269,2.542 c -0.369,0.22 -0.688,0.417 -0.958,0.589 -0.269,0.171 -0.497,0.325 -0.684,0.458 -0.184,0.134 -0.336,0.25 -0.454,0.349 -0.114,0.096 -0.207,0.181 -0.278,0.255 l -0.3,0.188 -1.062,-1.785 -0.106,-0.235 0.221,-0.13 0.064,-0.027 c 0.101,-0.026 0.222,-0.067 0.361,-0.119 0.143,-0.054 0.316,-0.132 0.518,-0.233 0.208,-0.101 0.452,-0.231 0.732,-0.382 0.282,-0.154 0.607,-0.34 0.975,-0.559 l 4.269,-2.542 c 0.368,-0.218 0.686,-0.415 0.956,-0.591 0.268,-0.174 0.498,-0.329 0.69,-0.463 0.186,-0.13 0.337,-0.246 0.454,-0.347 0.113,-0.098 0.205,-0.185 0.277,-0.259 l 0.296,-0.197 1.067,1.793 0.105,0.235 -0.221,0.131 z"
       style="fill:#1d1d1b;fill-opacity:1;fill-rule:nonzero;stroke:none"
       transform="matrix(1.3333333,0,0,-1.3333333,411.56587,476.89773)"
       clip-path="url(#clipPath112)" />
    <path
       id="path113"
       d="M 0,0 C -0.328,0.244 -0.674,0.421 -1.027,0.526 -1.371,0.628 -1.726,0.686 -2.081,0.698 -2.428,0.71 -2.784,0.693 -3.141,0.643 -3.486,0.594 -3.829,0.537 -4.172,0.47 -4.507,0.404 -4.838,0.343 -5.165,0.286 -5.481,0.231 -5.789,0.199 -6.083,0.192 -6.372,0.186 -6.651,0.215 -6.916,0.279 -7.168,0.338 -7.412,0.455 -7.64,0.625 c -0.156,0.116 -0.282,0.25 -0.372,0.401 -0.09,0.147 -0.143,0.301 -0.163,0.469 -0.02,0.168 -0.005,0.344 0.046,0.521 0.051,0.182 0.145,0.366 0.281,0.548 0.149,0.201 0.322,0.36 0.514,0.475 0.198,0.117 0.406,0.2 0.62,0.244 0.215,0.044 0.437,0.055 0.66,0.031 0.223,-0.024 0.439,-0.081 0.639,-0.168 l 0.184,-0.08 0.373,0.498 -1.531,1.408 -0.144,-0.051 C -6.668,4.874 -6.83,4.806 -7.02,4.714 -7.212,4.621 -7.411,4.506 -7.61,4.371 -7.813,4.236 -8.022,4.073 -8.23,3.887 -8.442,3.698 -8.642,3.478 -8.824,3.233 -9.153,2.789 -9.371,2.345 -9.47,1.912 -9.57,1.477 -9.582,1.062 -9.506,0.679 c 0.076,-0.382 0.225,-0.736 0.443,-1.054 0.211,-0.311 0.465,-0.577 0.755,-0.794 0.387,-0.288 0.822,-0.469 1.293,-0.539 0.448,-0.068 0.921,-0.078 1.406,-0.04 0.477,0.041 0.963,0.111 1.445,0.206 0.472,0.095 0.931,0.17 1.366,0.222 0.425,0.053 0.83,0.062 1.202,0.031 0.345,-0.03 0.638,-0.138 0.896,-0.329 0.161,-0.119 0.289,-0.25 0.384,-0.391 0.091,-0.134 0.15,-0.278 0.177,-0.428 0.026,-0.149 0.017,-0.306 -0.028,-0.47 -0.045,-0.168 -0.133,-0.341 -0.262,-0.515 -0.147,-0.197 -0.303,-0.345 -0.465,-0.44 -0.167,-0.099 -0.334,-0.165 -0.497,-0.199 -0.161,-0.033 -0.319,-0.044 -0.467,-0.03 -0.15,0.015 -0.279,0.039 -0.383,0.071 l -0.172,0.054 -0.355,-0.477 1.44,-1.157 0.446,0.255 c 0.127,0.071 0.268,0.163 0.424,0.271 0.154,0.109 0.316,0.241 0.485,0.396 0.17,0.156 0.338,0.345 0.501,0.563 0.223,0.301 0.39,0.637 0.495,0.999 0.104,0.363 0.14,0.735 0.107,1.108 C 1.097,-1.632 0.988,-1.267 0.807,-0.922 0.623,-0.571 0.352,-0.262 0,0"
       style="fill:#1d1d1b;fill-opacity:1;fill-rule:nonzero;stroke:none"
       transform="matrix(1.3333333,0,0,-1.3333333,404.46533,482.47253)"
       clip-path="url(#clipPath114)" />
    <path
       id="path115"
       d="M 0,0 C -0.591,0.268 -1.181,0.453 -1.755,0.548 -2.327,0.643 -2.889,0.664 -3.428,0.613 -3.965,0.56 -4.483,0.44 -4.968,0.255 -5.454,0.071 -5.907,-0.173 -6.314,-0.471 -6.722,-0.767 -7.09,-1.116 -7.41,-1.506 c -0.319,-0.39 -0.586,-0.82 -0.795,-1.279 -0.366,-0.807 -0.554,-1.622 -0.558,-2.421 -0.004,-0.799 0.156,-1.567 0.475,-2.284 0.319,-0.715 0.794,-1.375 1.414,-1.965 0.617,-0.587 1.375,-1.088 2.255,-1.487 0.435,-0.197 0.892,-0.36 1.358,-0.482 0.47,-0.123 0.921,-0.196 1.341,-0.22 l 0.112,-0.006 1.429,1.389 -0.288,0.442 -0.198,-0.089 c -0.249,-0.111 -0.51,-0.195 -0.774,-0.248 -0.262,-0.053 -0.527,-0.08 -0.79,-0.08 -0.289,0.01 -0.567,0.031 -0.847,0.093 -0.267,0.059 -0.53,0.147 -0.779,0.258 -0.694,0.316 -1.253,0.717 -1.659,1.192 -0.405,0.473 -0.686,1.005 -0.839,1.581 -0.153,0.58 -0.186,1.21 -0.098,1.873 0.09,0.668 0.292,1.355 0.602,2.038 0.279,0.613 0.622,1.123 1.021,1.515 0.396,0.39 0.835,0.677 1.306,0.851 0.471,0.175 0.979,0.247 1.51,0.211 0.537,-0.035 1.089,-0.18 1.641,-0.43 0.576,-0.262 1.067,-0.6 1.459,-1.003 C 1.28,-2.46 1.579,-2.902 1.777,-3.369 L 1.841,-3.522 2.323,-3.529 2.46,-1.671 2.374,-1.587 C 1.716,-0.949 0.917,-0.415 0,0"
       style="fill:#1d1d1b;fill-opacity:1;fill-rule:nonzero;stroke:none"
       transform="matrix(1.3333333,0,0,-1.3333333,328.6184,502.53733)"
       clip-path="url(#clipPath116)" />
    <path
       id="path117"
       d="m 0,0 -0.029,-0.291 0.006,-0.035 c 0.017,-0.101 0.03,-0.228 0.04,-0.377 0.01,-0.153 0.012,-0.342 0.003,-0.569 -0.008,-0.235 -0.023,-0.512 -0.045,-0.83 -0.022,-0.32 -0.057,-0.693 -0.104,-1.12 l -0.179,-1.631 c -0.165,0.011 -0.349,0.026 -0.55,0.041 -0.306,0.023 -0.635,0.051 -0.987,0.082 -0.351,0.03 -0.715,0.063 -1.092,0.1 -0.376,0.036 -0.747,0.073 -1.111,0.111 -0.363,0.037 -0.711,0.075 -1.043,0.115 -0.232,0.026 -0.445,0.054 -0.642,0.08 l 0.186,1.698 c 0.047,0.426 0.094,0.797 0.142,1.114 0.047,0.317 0.092,0.59 0.135,0.821 0.042,0.223 0.084,0.408 0.127,0.556 0.042,0.143 0.083,0.263 0.122,0.359 L -4.975,0.577 -7.046,0.805 -7.301,0.802 -7.335,0.514 -7.329,0.478 C -7.311,0.375 -7.298,0.25 -7.288,0.1 c 0.01,-0.154 0.013,-0.345 0.007,-0.573 -0.006,-0.233 -0.02,-0.509 -0.045,-0.826 -0.025,-0.32 -0.061,-0.693 -0.108,-1.121 l -0.543,-4.938 c -0.046,-0.426 -0.093,-0.799 -0.137,-1.116 -0.045,-0.316 -0.09,-0.585 -0.135,-0.812 -0.044,-0.221 -0.087,-0.406 -0.131,-0.555 -0.042,-0.143 -0.083,-0.263 -0.122,-0.36 l -0.05,-0.351 2.076,-0.229 0.259,0.002 0.029,0.291 -0.006,0.034 c -0.018,0.102 -0.03,0.229 -0.041,0.378 -0.01,0.153 -0.011,0.341 -0.003,0.567 0.008,0.231 0.022,0.507 0.045,0.826 0.023,0.32 0.057,0.692 0.104,1.119 l 0.22,2.007 c 0.189,-0.014 0.397,-0.032 0.625,-0.054 0.332,-0.031 0.682,-0.068 1.092,-0.117 l 1.09,-0.127 c 0.386,-0.045 0.757,-0.09 1.112,-0.133 0.357,-0.045 0.687,-0.085 0.99,-0.12 0.19,-0.023 0.358,-0.043 0.507,-0.061 L -0.671,-8.16 c -0.047,-0.426 -0.094,-0.798 -0.142,-1.114 -0.047,-0.316 -0.093,-0.588 -0.135,-0.817 -0.042,-0.221 -0.084,-0.405 -0.127,-0.552 -0.042,-0.143 -0.082,-0.263 -0.122,-0.36 l -0.045,-0.353 2.071,-0.227 0.255,0.003 0.034,0.288 -0.006,0.037 c -0.018,0.101 -0.031,0.228 -0.041,0.377 -0.01,0.154 -0.013,0.343 -0.008,0.57 0.005,0.23 0.02,0.504 0.045,0.821 0.025,0.319 0.061,0.693 0.108,1.121 l 0.542,4.938 c 0.047,0.426 0.093,0.799 0.138,1.116 0.045,0.315 0.09,0.587 0.135,0.816 0.044,0.224 0.088,0.409 0.132,0.558 0.042,0.143 0.083,0.264 0.121,0.361 l 0.052,0.35 -2.077,0.229 z"
       style="fill:#1d1d1b;fill-opacity:1;fill-rule:nonzero;stroke:none"
       transform="matrix(1.3333333,0,0,-1.3333333,345.4596,506.64827)"
       clip-path="url(#clipPath118)" />
    <path
       id="path119"
       d="M 0,0 C -0.04,0.096 -0.082,0.216 -0.126,0.36 -0.17,0.506 -0.213,0.69 -0.257,0.911 -0.302,1.138 -0.35,1.409 -0.399,1.725 -0.45,2.042 -0.5,2.413 -0.551,2.839 l -0.587,4.932 c -0.051,0.426 -0.089,0.798 -0.114,1.118 -0.026,0.319 -0.044,0.596 -0.054,0.831 -0.009,0.227 -0.01,0.416 -0.002,0.569 0.009,0.149 0.021,0.276 0.038,0.378 l 0.002,0.065 -0.034,0.289 -2.065,-0.245 -0.25,-0.06 0.031,-0.254 0.018,-0.068 c 0.04,-0.095 0.08,-0.213 0.12,-0.356 0.043,-0.148 0.088,-0.336 0.134,-0.559 0.047,-0.23 0.094,-0.501 0.142,-0.816 0.048,-0.317 0.097,-0.689 0.148,-1.116 l 0.587,-4.932 c 0.051,-0.427 0.091,-0.801 0.119,-1.12 0.027,-0.317 0.044,-0.59 0.052,-0.821 0.008,-0.228 0.008,-0.42 10e-4,-0.572 -0.006,-0.148 -0.016,-0.273 -0.033,-0.375 l -0.002,-0.065 0.033,-0.289 2.066,0.245 0.249,0.06 -0.03,0.254 z"
       style="fill:#1d1d1b;fill-opacity:1;fill-rule:nonzero;stroke:none"
       transform="matrix(1.3333333,0,0,-1.3333333,356.41453,520.70547)"
       clip-path="url(#clipPath120)" />
    <path
       id="path121"
       d="M 0,0 C -0.313,-0.185 -0.671,-0.371 -1.067,-0.555 -1.409,-0.718 -1.815,-0.892 -2.275,-1.071 -2.67,-1.226 -3.108,-1.374 -3.58,-1.511 L -5.466,5.256 C -5.582,5.668 -5.676,6.031 -5.75,6.342 -5.823,6.653 -5.883,6.923 -5.929,7.154 -5.974,7.376 -6.003,7.564 -6.018,7.718 -6.033,7.867 -6.04,7.993 -6.039,8.097 L -6.124,8.442 -8.135,7.881 -8.375,7.782 -8.303,7.535 -8.275,7.473 c 0.054,-0.089 0.113,-0.201 0.178,-0.336 0.066,-0.139 0.14,-0.315 0.22,-0.528 0.082,-0.22 0.17,-0.481 0.265,-0.785 0.096,-0.305 0.202,-0.665 0.317,-1.079 l 1.335,-4.786 c 0.115,-0.413 0.21,-0.776 0.287,-1.088 0.075,-0.308 0.135,-0.576 0.178,-0.803 0.041,-0.223 0.069,-0.411 0.084,-0.563 0.014,-0.15 0.022,-0.277 0.021,-0.381 l 0.085,-0.345 3.425,0.956 c 0.041,0.011 0.104,0.027 0.233,0.06 l 0.836,0.218 c 0.158,0.041 0.308,0.08 0.454,0.115 l 0.394,0.094 c 0.114,0.027 0.2,0.046 0.258,0.057 l 0.23,0.042 -0.18,1.883 z"
       style="fill:#1d1d1b;fill-opacity:1;fill-rule:nonzero;stroke:none"
       transform="matrix(1.3333333,0,0,-1.3333333,368.14347,516.13587)"
       clip-path="url(#clipPath122)" />
    <path
       id="path123"
       d="m 0,0 c -0.276,-0.245 -0.591,-0.498 -0.939,-0.751 -0.299,-0.223 -0.664,-0.472 -1.085,-0.741 -0.361,-0.23 -0.762,-0.459 -1.196,-0.684 l -1.922,3.814 c 0.231,0.11 0.473,0.218 0.727,0.323 0.341,0.14 0.659,0.265 0.954,0.375 0.344,0.129 0.682,0.251 1.015,0.368 l 0.222,0.077 -0.441,1.68 -0.301,-0.215 C -3.179,4.094 -3.431,3.927 -3.721,3.748 -3.971,3.593 -4.279,3.41 -4.642,3.198 -4.943,3.022 -5.279,2.838 -5.649,2.644 L -7.3,5.918 -7.023,6.077 c 0.135,0.079 0.275,0.16 0.423,0.243 0.145,0.08 0.27,0.15 0.376,0.203 0.315,0.157 0.602,0.286 0.851,0.383 0.255,0.098 0.473,0.176 0.657,0.234 0.205,0.066 0.389,0.116 0.552,0.15 L -3.935,7.336 -4.136,9.091 -4.493,8.815 C -4.588,8.742 -4.796,8.617 -5.109,8.442 -5.432,8.262 -5.824,8.051 -6.287,7.81 -6.751,7.567 -7.262,7.302 -7.82,7.015 -8.379,6.728 -8.941,6.441 -9.509,6.155 L -9.725,6.012 -9.606,5.784 -9.568,5.729 c 0.071,-0.078 0.151,-0.176 0.241,-0.296 0.092,-0.123 0.198,-0.282 0.318,-0.478 0.123,-0.197 0.26,-0.437 0.412,-0.716 0.153,-0.282 0.327,-0.614 0.52,-0.998 l 2.237,-4.437 c 0.193,-0.382 0.357,-0.72 0.493,-1.011 0.134,-0.288 0.244,-0.538 0.329,-0.754 0.085,-0.21 0.149,-0.389 0.193,-0.535 0.044,-0.144 0.074,-0.267 0.094,-0.369 l 0.15,-0.322 3.175,1.599 c 0.044,0.024 0.116,0.058 0.215,0.106 l 0.779,0.376 c 0.148,0.071 0.289,0.137 0.424,0.2 l 0.369,0.169 c 0.107,0.049 0.189,0.085 0.244,0.107 l 0.214,0.087 -0.54,1.81 z"
       style="fill:#1d1d1b;fill-opacity:1;fill-rule:nonzero;stroke:none"
       transform="matrix(1.3333333,0,0,-1.3333333,379.5028,510.85547)"
       clip-path="url(#clipPath124)" />
    <path
       id="path125"
       d="M 0,0 H 1.857 V 0 -14.354 H 1.86 2.63 c 0.485,0 0.919,0.097 1.291,0.288 1.199,0.616 2.621,0.942 4.114,0.943 1.35,0 2.64,-0.266 3.76,-0.771 0.355,-0.16 0.658,0.057 0.658,0.446 V 2.691 C 11.132,3.277 9.625,3.617 8.039,3.617 H 8.037 8.035 C 5.88,3.617 3.825,3.042 2.252,1.996 L 1.912,1.77 H -1.77 v -19.372 h 26.588 v 1.814 H 0 Z"
       style="fill:#1d1d1b;fill-opacity:1;fill-rule:nonzero;stroke:none"
       transform="matrix(1.3333333,0,0,-1.3333333,358.78013,426.8788)"
       clip-path="url(#clipPath126)" />
    <path
       id="path127"
       d="m 0,0 -0.34,0.226 c -1.573,1.046 -3.627,1.622 -5.783,1.622 -0.003,0 -0.005,-0.001 -0.008,-0.001 -0.002,0 -0.005,0.001 -0.008,0.001 -0.517,0 -1.028,-0.038 -1.53,-0.104 C -7.777,1.73 -7.878,1.703 -7.984,1.686 -8.316,1.633 -9.047,1.467 -9.047,1.467 -9.573,1.33 -10.065,1.139 -10.54,0.926 v -16.143 c 0,-0.39 0.303,-0.607 0.658,-0.447 1.118,0.505 2.406,0.77 3.752,0.771 1.491,-10e-4 2.911,-0.327 4.108,-0.943 0.371,-0.191 0.805,-0.287 1.291,-0.287 h 0.77 0.016 V -1.77 0 Z"
       style="fill:#1d1d1b;fill-opacity:1;fill-rule:nonzero;stroke:none"
       transform="matrix(1.3333333,0,0,-1.3333333,391.79707,424.51933)"
       clip-path="url(#clipPath128)" />
    <path
       id="path129"
       d="m 0,0 c -0.084,0.892 -0.471,1.732 -1.09,2.366 0,0 -4.526,4.629 -4.818,4.925 -0.237,0.239 -0.293,0.43 -0.222,0.757 0.159,0.734 0.001,1.495 -0.436,2.089 -0.41,0.559 -1.007,0.901 -1.679,0.961 -0.459,0.043 -0.926,0.034 -1.38,0.026 -0.151,-0.003 -0.302,-0.005 -0.453,-0.006 h -0.004 c -0.132,0 -0.223,0.051 -0.32,0.128 -0.178,0.141 -0.39,0.304 -0.617,0.445 -0.984,0.605 -2.743,0.58 -3.793,-0.427 -0.107,-0.102 -0.214,-0.147 -0.353,-0.147 -0.01,0 -0.02,10e-4 -0.03,10e-4 -0.185,0.007 -0.372,0.007 -0.552,0.004 -0.337,-10e-4 -0.676,-10e-4 -1.013,0 h -0.006 c -0.371,0 -0.732,-0.091 -1.075,-0.271 -1.032,-0.543 -1.551,-1.759 -1.264,-2.96 0.039,-0.16 0.014,-0.251 -0.096,-0.363 -0.167,-0.171 -5.001,-5.157 -5.001,-5.157 -0.62,-0.636 -1.007,-1.483 -1.091,-2.386 -0.142,-1.51 -0.098,-2.04 -0.053,-2.306 0.074,-0.427 0.269,-0.801 0.558,-1.091 h 0.003 c 0.106,-0.111 0.253,-0.182 0.419,-0.182 0.194,0 0.358,0.102 0.464,0.248 l 0.012,10e-4 4.839,6.706 1.055,-1.079 -5.722,-7.929 -0.001,-0.03 c -0.124,-0.165 -0.211,-0.361 -0.211,-0.584 0,-0.19 0.068,-0.358 0.161,-0.509 l -0.002,-0.039 c 0.436,-0.786 0.949,-1.526 1.522,-2.202 0.331,-0.39 0.745,-0.657 1.198,-0.795 0.532,-0.162 1.096,0.146 1.259,0.677 l 3.212,10.444 1.372,-0.598 -3.572,-11.615 c -0.115,-0.374 -0.013,-0.792 0.284,-1.048 0.223,-0.192 0.47,-0.353 0.736,-0.475 0.651,-0.296 1.329,-0.537 2.017,-0.715 0.573,-0.152 1.157,-0.121 1.703,0.065 0.397,0.135 0.651,0.529 0.651,0.948 V 0.322 h 1.486 v -12.489 c 0,-0.434 0.27,-0.841 0.686,-0.959 0.529,-0.15 1.103,-0.16 1.683,-0.006 0.684,0.177 1.361,0.419 2.014,0.717 0.254,0.116 0.517,0.311 0.762,0.559 0.273,0.275 0.355,0.689 0.24,1.06 l -3.546,11.513 1.372,0.598 3.207,-10.429 c 0.163,-0.531 0.728,-0.838 1.259,-0.676 0.452,0.137 0.863,0.402 1.191,0.788 0.572,0.675 1.082,1.414 1.516,2.197 l -0.002,0.032 c 0.092,0.15 0.158,0.316 0.158,0.505 0,0.219 -0.085,0.411 -0.206,0.575 l -0.001,0.033 -5.732,7.942 1.056,1.079 4.848,-6.718 0.011,-10e-4 c 0.107,-0.14 0.267,-0.236 0.456,-0.236 0.161,0 0.307,0.065 0.412,0.171 h 0.002 c 0.297,0.291 0.498,0.672 0.572,1.107 C 0.1,-2.051 0.144,-1.524 0,0"
       style="fill:#1d1d1b;fill-opacity:1;fill-rule:nonzero;stroke:none"
       transform="matrix(1.3333333,0,0,-1.3333333,336.5776,435.43573)"
       clip-path="url(#clipPath130)" />
    <path
       id="path131"
       d="M 0,0 C 0,0 -0.805,-2.774 -1.353,-3.298 -1.91,-3.831 -3.667,-3.68 -2.926,-2.926 l 1.728,2.491 c 0,0 0.398,0.791 0.866,0.749 C 0.102,0.276 0,0 0,0 m -8.447,-2.455 c -0.276,-0.887 -0.675,-1.865 -1.108,-2.677 -0.473,-0.884 -0.578,-1.041 -0.839,-1.934 -0.096,-0.713 -0.817,-2.483 -1.532,-2.076 -1.932,1.099 -2.391,-0.021 -3.283,0.025 -0.248,0.012 -0.372,0.329 -0.197,0.506 1.312,1.33 6.179,6.316 6.265,6.435 0.291,0.406 0.859,0.177 0.694,-0.279 M 5.624,-4.027 5.627,-4.023 C 5.623,-4.019 5.618,-4.017 5.614,-4.014 L 1.51,1.594 C 0.639,2.784 -1.146,2.761 -1.986,1.549 l -2.287,-3.301 c -0.171,-0.249 -0.889,-1.283 -0.889,-1.283 l 0.005,-0.008 -1.509,2.178 c -0.775,1.118 -2.371,1.265 -3.336,0.307 l -7.334,-7.508 c -0.206,-0.204 -0.352,-0.462 -0.42,-0.745 l -0.485,-2.013 c -0.049,-0.2 -0.149,-0.373 -0.319,-0.547 l -6.212,-6.723 1.872,-0.569 4.743,5.086 c 0.157,0.033 0.306,0.066 0.433,0.098 1.232,0.343 2.705,1.577 3.034,0.343 0.345,-1.235 -1.49,-3.078 0.071,-3.21 1.516,-0.137 2.96,0.75 6.47,2.884 2.178,1.324 3.363,0.251 4.248,-0.206 0.807,-0.396 3.989,-2.399 5.506,-2.135 l 1.999,-2.86 1.773,0.541 -7.845,11.134 c 0.845,0.51 3.543,-1.921 4.481,-1.849 0.97,0.077 0.754,0.42 0.612,1.176 -0.481,2.26 0.767,1.118 1.535,0.923 0.274,-0.071 0.786,-0.091 1.27,-0.046 l 1.874,-2.549 0.047,-0.063 1.806,0.545 z"
       style="fill:#1d1d1b;fill-opacity:1;fill-rule:nonzero;stroke:none"
       transform="matrix(1.3333333,0,0,-1.3333333,328.948,367.1096)"
       clip-path="url(#clipPath132)" />
    <path
       id="path133"
       d="m 0,0 c -0.035,0.005 -0.069,0.008 -0.104,0.011 -3.107,0.312 -5.912,-1.926 -6.281,-5.034 -0.181,-1.523 0.244,-3.025 1.195,-4.229 0.951,-1.205 2.315,-1.968 3.84,-2.148 0.035,-0.004 0.069,-0.008 0.103,-0.011 3.109,-0.313 5.916,1.927 6.283,5.036 0.181,1.522 -0.244,3.024 -1.195,4.227 C 2.89,-0.943 1.526,-0.18 0,0"
       style="fill:#1d1d1b;fill-opacity:1;fill-rule:nonzero;stroke:none"
       transform="matrix(1.3333333,0,0,-1.3333333,375.72133,370.33747)"
       clip-path="url(#clipPath134)" />
    <path
       id="path135"
       d="m 0,0 c -0.466,-3.935 -4.017,-6.769 -7.95,-6.374 -0.042,0.004 -0.086,0.009 -0.129,0.014 -1.929,0.228 -3.655,1.193 -4.858,2.717 -1.204,1.525 -1.741,3.425 -1.513,5.353 0.472,3.978 4.108,6.81 8.078,6.359 C -4.441,7.84 -2.716,6.876 -1.513,5.352 -0.309,3.828 0.227,1.927 0,0 M 1.345,2.681 C 1.349,2.663 1.087,3.638 1.091,3.627 2.779,5.398 3.619,7.362 3.957,8.469 4.067,8.83 3.984,9.217 3.75,9.514 3.533,9.789 3.305,10.056 3.068,10.314 L 2.621,9.852 C 1.638,8.833 -0.033,8.183 -2.031,7.907 c 0.012,-0.008 -0.544,0.375 -0.854,0.551 0.461,2.781 -0.374,4.962 -0.988,6.191 -0.144,0.289 -0.412,0.494 -0.729,0.555 -0.414,0.081 -0.602,0.108 -1.218,0.172 -0.004,-0.003 -0.007,-0.005 -0.011,-0.008 -0.34,-1.939 -1.864,-4.357 -2.978,-5.921 0.03,0.006 -1.019,-0.245 -0.973,-0.231 -1.803,1.683 -3.802,2.504 -4.958,2.837 -0.347,0.1 -0.724,0.038 -1.008,-0.184 -0.303,-0.237 -0.596,-0.486 -0.878,-0.747 l 0.453,-0.416 c 1.026,-0.94 1.712,-2.556 2.044,-4.5 0.032,0.041 -0.611,-0.919 -0.601,-0.902 -2.777,0.421 -5,-0.497 -6.232,-1.106 -0.321,-0.159 -0.546,-0.461 -0.611,-0.812 -0.065,-0.355 -0.092,-0.582 -0.156,-1.156 1.904,-0.301 4.312,-1.728 5.906,-2.8 -0.003,0.021 0.177,-0.857 0.327,-1.307 -0.004,0.012 -0.013,0.029 -0.017,0.04 -1.635,-1.773 -2.446,-3.728 -2.786,-4.893 -0.1,-0.344 -0.04,-0.718 0.182,-0.999 0.247,-0.312 0.508,-0.613 0.78,-0.904 l 0.372,0.408 c 0.949,1.044 2.593,1.743 4.572,2.079 -0.012,0.008 0.933,-0.599 0.93,-0.598 -0.517,-2.755 0.196,-4.81 0.821,-6.109 0.147,-0.306 0.435,-0.522 0.769,-0.587 0.355,-0.069 0.597,-0.108 1.19,-0.177 0,0.001 10e-4,0.001 10e-4,0.001 0.406,1.978 2.064,4.421 3.224,5.945 -0.003,-10e-4 -0.007,-10e-4 -0.009,-0.002 0.388,0.079 1.029,0.267 1.029,0.267 1.782,-1.624 3.746,-2.424 4.945,-2.763 0.349,-0.099 0.729,-0.036 1.012,0.191 0.319,0.256 0.627,0.527 0.924,0.81 l -0.378,0.333 c -1.074,0.945 -1.805,2.607 -2.169,4.616 0,0 0.611,0.995 0.604,0.982 0,0 0,0 0,0 2.658,-0.322 5.075,0.678 6.156,1.252 0.31,0.165 0.524,0.464 0.577,0.811 0.011,0.073 0.025,0.171 0.049,0.336 0.041,0.289 0.057,0.579 0.074,0.867 C 5.425,0.266 2.965,1.645 1.345,2.681"
       style="fill:#1d1d1b;fill-opacity:1;fill-rule:nonzero;stroke:none"
       transform="matrix(1.3333333,0,0,-1.3333333,384.45533,379.0764)"
       clip-path="url(#clipPath136)" />
  </g>
</svg>
